<mxfile host="app.diagrams.net" modified="2021-09-17T01:50:13.460Z" agent="5.0 (Macintosh; Intel Mac OS X 10_15_7) AppleWebKit/537.36 (KHTML, like Gecko) Chrome/92.0.4515.131 Safari/537.36 Edg/92.0.902.73" etag="zdqk5jElVeV5G2m-GAeH" version="15.2.7" type="github">
  <diagram id="K7HydN_vtef9m2hoQVEX" name="Page-1">
    <mxGraphModel dx="3348" dy="4644" grid="1" gridSize="10" guides="1" tooltips="1" connect="1" arrows="1" fold="1" page="1" pageScale="1" pageWidth="827" pageHeight="1169" math="0" shadow="0">
      <root>
        <mxCell id="0" />
        <mxCell id="1" parent="0" />
        <mxCell id="Dmu5rAs_sLpRuxzt0D4c-9" value="&lt;h2 style=&quot;font-size: 30px&quot;&gt;&lt;font style=&quot;font-size: 30px&quot;&gt;数据应用层&lt;/font&gt;&lt;/h2&gt;" style="rounded=1;whiteSpace=wrap;html=1;sketch=1;fontFamily=Comic Sans MS;fontSize=30;" vertex="1" parent="1">
          <mxGeometry x="-400" y="-2210" width="60" height="2440" as="geometry" />
        </mxCell>
        <mxCell id="Dmu5rAs_sLpRuxzt0D4c-10" value="&lt;h2 style=&quot;font-size: 38px;&quot;&gt;&lt;font style=&quot;font-size: 38px;&quot;&gt;数据采集层&lt;/font&gt;&lt;/h2&gt;" style="rounded=1;whiteSpace=wrap;html=1;sketch=1;fontFamily=Comic Sans MS;fontSize=38;" vertex="1" parent="1">
          <mxGeometry x="-400" y="1340" width="60" height="768" as="geometry" />
        </mxCell>
        <mxCell id="Dmu5rAs_sLpRuxzt0D4c-14" value="" style="rounded=1;whiteSpace=wrap;html=1;sketch=1;dashed=1;fontFamily=Comic Sans MS;" vertex="1" parent="1">
          <mxGeometry x="-331" y="-2210" width="1490" height="2440" as="geometry" />
        </mxCell>
        <mxCell id="Dmu5rAs_sLpRuxzt0D4c-15" value="" style="rounded=1;whiteSpace=wrap;html=1;sketch=1;dashed=1;fontFamily=Comic Sans MS;" vertex="1" parent="1">
          <mxGeometry x="-331" y="1320" width="1490" height="790" as="geometry" />
        </mxCell>
        <mxCell id="Dmu5rAs_sLpRuxzt0D4c-17" value="&lt;h2 style=&quot;font-size: 38px;&quot;&gt;&lt;font style=&quot;font-size: 38px;&quot;&gt;立体化监控层&lt;/font&gt;&lt;/h2&gt;" style="rounded=1;whiteSpace=wrap;html=1;sketch=1;fontFamily=Comic Sans MS;fontSize=38;" vertex="1" parent="1">
          <mxGeometry x="-400" y="2250" width="60" height="340" as="geometry" />
        </mxCell>
        <mxCell id="Dmu5rAs_sLpRuxzt0D4c-18" value="" style="rounded=1;whiteSpace=wrap;html=1;sketch=1;dashed=1;fontSize=38;fontFamily=Comic Sans MS;" vertex="1" parent="1">
          <mxGeometry x="-331" y="2250" width="1490" height="342" as="geometry" />
        </mxCell>
        <mxCell id="Dmu5rAs_sLpRuxzt0D4c-19" value="&lt;span style=&quot;font-size: 30px;&quot;&gt;网络管理平台&lt;/span&gt;" style="rounded=0;whiteSpace=wrap;html=1;sketch=1;labelBackgroundColor=none;fontSize=30;fontFamily=Comic Sans MS;" vertex="1" parent="1">
          <mxGeometry x="-290" y="2270" width="320" height="100" as="geometry" />
        </mxCell>
        <mxCell id="Dmu5rAs_sLpRuxzt0D4c-20" value="&lt;span style=&quot;font-size: 30px;&quot;&gt;prometheus&lt;/span&gt;&lt;font style=&quot;font-size: 30px;&quot;&gt;&lt;span style=&quot;font-size: 30px;&quot;&gt;平台&lt;/span&gt;&lt;/font&gt;" style="rounded=0;whiteSpace=wrap;html=1;sketch=1;fontSize=30;fontFamily=Comic Sans MS;" vertex="1" parent="1">
          <mxGeometry x="-290" y="2400" width="320" height="100" as="geometry" />
        </mxCell>
        <mxCell id="Dmu5rAs_sLpRuxzt0D4c-21" value="南网云管理平台" style="rounded=0;whiteSpace=wrap;html=1;sketch=1;fontSize=30;fontFamily=Comic Sans MS;" vertex="1" parent="1">
          <mxGeometry x="70" y="2270" width="320" height="100" as="geometry" />
        </mxCell>
        <mxCell id="Dmu5rAs_sLpRuxzt0D4c-22" value="&lt;span style=&quot;font-size: 30px;&quot;&gt;拨测平台&lt;/span&gt;" style="rounded=0;whiteSpace=wrap;html=1;sketch=1;fontSize=30;fontFamily=Comic Sans MS;" vertex="1" parent="1">
          <mxGeometry x="70" y="2400" width="320" height="100" as="geometry" />
        </mxCell>
        <mxCell id="Dmu5rAs_sLpRuxzt0D4c-23" value="&lt;span style=&quot;font-size: 30px;&quot;&gt;华为云管理平台&lt;/span&gt;" style="rounded=0;whiteSpace=wrap;html=1;sketch=1;fontSize=30;fontFamily=Comic Sans MS;" vertex="1" parent="1">
          <mxGeometry x="430" y="2270" width="320" height="100" as="geometry" />
        </mxCell>
        <mxCell id="Dmu5rAs_sLpRuxzt0D4c-24" value="&lt;font style=&quot;font-size: 30px;&quot;&gt;&lt;span style=&quot;font-size: 30px;&quot;&gt;北塔监控平台&lt;/span&gt;&lt;/font&gt;" style="rounded=0;whiteSpace=wrap;html=1;sketch=1;fontSize=30;fontFamily=Comic Sans MS;" vertex="1" parent="1">
          <mxGeometry x="430" y="2400" width="320" height="100" as="geometry" />
        </mxCell>
        <mxCell id="Dmu5rAs_sLpRuxzt0D4c-25" value="&lt;span style=&quot;font-size: 30px;&quot;&gt;VMware云管理平台&lt;/span&gt;" style="rounded=0;whiteSpace=wrap;html=1;sketch=1;fontSize=30;fontFamily=Comic Sans MS;" vertex="1" parent="1">
          <mxGeometry x="790" y="2270" width="320" height="100" as="geometry" />
        </mxCell>
        <mxCell id="Dmu5rAs_sLpRuxzt0D4c-26" value="&lt;span style=&quot;font-size: 30px;&quot;&gt;云管平台&lt;/span&gt;" style="rounded=0;whiteSpace=wrap;html=1;sketch=1;fontSize=30;fontFamily=Comic Sans MS;" vertex="1" parent="1">
          <mxGeometry x="790" y="2400" width="320" height="100" as="geometry" />
        </mxCell>
        <mxCell id="Dmu5rAs_sLpRuxzt0D4c-27" value="&lt;span style=&quot;font-size: 30px;&quot;&gt;专业定制化监控平台&lt;/span&gt;" style="rounded=0;whiteSpace=wrap;html=1;sketch=1;fontSize=30;fontFamily=Comic Sans MS;" vertex="1" parent="1">
          <mxGeometry x="-290" y="2520" width="1400" height="60" as="geometry" />
        </mxCell>
        <mxCell id="Dmu5rAs_sLpRuxzt0D4c-29" value="" style="shape=singleArrow;direction=north;whiteSpace=wrap;html=1;rounded=0;labelBackgroundColor=none;sketch=1;fontSize=38;fontFamily=Comic Sans MS;" vertex="1" parent="1">
          <mxGeometry x="-230" y="2120" width="100" height="130" as="geometry" />
        </mxCell>
        <mxCell id="Dmu5rAs_sLpRuxzt0D4c-30" value="" style="shape=singleArrow;direction=north;whiteSpace=wrap;html=1;rounded=0;labelBackgroundColor=none;sketch=1;fontSize=38;fontFamily=Comic Sans MS;" vertex="1" parent="1">
          <mxGeometry x="363" y="2120" width="100" height="130" as="geometry" />
        </mxCell>
        <mxCell id="Dmu5rAs_sLpRuxzt0D4c-31" value="" style="shape=singleArrow;direction=north;whiteSpace=wrap;html=1;rounded=0;labelBackgroundColor=none;sketch=1;fontSize=38;fontFamily=Comic Sans MS;" vertex="1" parent="1">
          <mxGeometry x="660" y="2120" width="100" height="130" as="geometry" />
        </mxCell>
        <mxCell id="Dmu5rAs_sLpRuxzt0D4c-32" value="" style="shape=singleArrow;direction=north;whiteSpace=wrap;html=1;rounded=0;labelBackgroundColor=none;sketch=1;fontSize=38;fontFamily=Comic Sans MS;" vertex="1" parent="1">
          <mxGeometry x="950" y="2120" width="100" height="130" as="geometry" />
        </mxCell>
        <mxCell id="Dmu5rAs_sLpRuxzt0D4c-34" value="" style="shape=singleArrow;direction=north;whiteSpace=wrap;html=1;rounded=0;labelBackgroundColor=none;sketch=1;fontSize=38;fontFamily=Comic Sans MS;" vertex="1" parent="1">
          <mxGeometry x="50" y="2120" width="100" height="130" as="geometry" />
        </mxCell>
        <mxCell id="Dmu5rAs_sLpRuxzt0D4c-35" value="OpenAPI" style="ellipse;whiteSpace=wrap;html=1;rounded=0;fontSize=27;sketch=1;fontFamily=Comic Sans MS;" vertex="1" parent="1">
          <mxGeometry x="-160" y="2170" width="120" height="60" as="geometry" />
        </mxCell>
        <mxCell id="Dmu5rAs_sLpRuxzt0D4c-37" value="MQ" style="ellipse;whiteSpace=wrap;html=1;rounded=0;fontSize=27;sketch=1;fontFamily=Comic Sans MS;" vertex="1" parent="1">
          <mxGeometry x="120" y="2170" width="120" height="60" as="geometry" />
        </mxCell>
        <mxCell id="Dmu5rAs_sLpRuxzt0D4c-39" value="CDC" style="ellipse;whiteSpace=wrap;html=1;rounded=0;fontSize=27;sketch=1;fontFamily=Comic Sans MS;" vertex="1" parent="1">
          <mxGeometry x="430" y="2170" width="120" height="60" as="geometry" />
        </mxCell>
        <mxCell id="Dmu5rAs_sLpRuxzt0D4c-41" value="SDK" style="ellipse;whiteSpace=wrap;html=1;rounded=0;fontSize=27;sketch=1;fontFamily=Comic Sans MS;" vertex="1" parent="1">
          <mxGeometry x="730" y="2170" width="120" height="60" as="geometry" />
        </mxCell>
        <mxCell id="Dmu5rAs_sLpRuxzt0D4c-43" value="Agent" style="ellipse;whiteSpace=wrap;html=1;rounded=0;fontSize=27;sketch=1;fontFamily=Comic Sans MS;" vertex="1" parent="1">
          <mxGeometry x="1020" y="2170" width="120" height="60" as="geometry" />
        </mxCell>
        <mxCell id="Dmu5rAs_sLpRuxzt0D4c-49" value="DOCC统一采控中心" style="verticalLabelPosition=bottom;verticalAlign=top;html=1;shape=mxgraph.basic.rect;fillColor2=none;strokeWidth=1;size=20;indent=5;rounded=0;labelBackgroundColor=none;sketch=1;fontFamily=Comic Sans MS;fontSize=44;" vertex="1" parent="1">
          <mxGeometry x="-290" y="1350" width="1410" height="680" as="geometry" />
        </mxCell>
        <mxCell id="Dmu5rAs_sLpRuxzt0D4c-50" value="&lt;span style=&quot;font-size: 30px&quot;&gt;数据接入&lt;/span&gt;" style="rounded=0;whiteSpace=wrap;html=1;sketch=1;labelBackgroundColor=none;fontSize=30;fontFamily=Comic Sans MS;" vertex="1" parent="1">
          <mxGeometry x="-280" y="1920" width="80" height="100" as="geometry" />
        </mxCell>
        <mxCell id="Dmu5rAs_sLpRuxzt0D4c-51" value="&lt;span style=&quot;font-size: 30px&quot;&gt;控制管理&lt;/span&gt;" style="rounded=0;whiteSpace=wrap;html=1;sketch=1;labelBackgroundColor=none;fontSize=30;fontFamily=Comic Sans MS;" vertex="1" parent="1">
          <mxGeometry x="-280" y="1481" width="80" height="430" as="geometry" />
        </mxCell>
        <mxCell id="Dmu5rAs_sLpRuxzt0D4c-52" value="&lt;span style=&quot;font-size: 30px&quot;&gt;数据层&lt;/span&gt;" style="rounded=0;whiteSpace=wrap;html=1;sketch=1;labelBackgroundColor=none;fontSize=30;fontFamily=Comic Sans MS;" vertex="1" parent="1">
          <mxGeometry x="-280" y="1370" width="80" height="100" as="geometry" />
        </mxCell>
        <mxCell id="Dmu5rAs_sLpRuxzt0D4c-53" value="&lt;span style=&quot;font-size: 30px&quot;&gt;普通安装&lt;/span&gt;" style="rounded=0;whiteSpace=wrap;html=1;sketch=1;labelBackgroundColor=none;fontSize=30;fontFamily=Comic Sans MS;" vertex="1" parent="1">
          <mxGeometry x="-180" y="1920" width="290" height="100" as="geometry" />
        </mxCell>
        <mxCell id="Dmu5rAs_sLpRuxzt0D4c-54" value="&lt;span style=&quot;font-size: 30px&quot;&gt;远程安装&lt;/span&gt;" style="rounded=0;whiteSpace=wrap;html=1;sketch=1;labelBackgroundColor=none;fontSize=30;fontFamily=Comic Sans MS;" vertex="1" parent="1">
          <mxGeometry x="130" y="1920" width="290" height="100" as="geometry" />
        </mxCell>
        <mxCell id="Dmu5rAs_sLpRuxzt0D4c-55" value="&lt;span style=&quot;font-size: 30px&quot;&gt;远程自动发现&lt;/span&gt;" style="rounded=0;whiteSpace=wrap;html=1;sketch=1;labelBackgroundColor=none;fontSize=30;fontFamily=Comic Sans MS;" vertex="1" parent="1">
          <mxGeometry x="440" y="1920" width="290" height="100" as="geometry" />
        </mxCell>
        <mxCell id="Dmu5rAs_sLpRuxzt0D4c-56" value="&lt;span style=&quot;font-size: 30px&quot;&gt;本地代理发现&lt;/span&gt;" style="rounded=0;whiteSpace=wrap;html=1;sketch=1;labelBackgroundColor=none;fontSize=30;fontFamily=Comic Sans MS;" vertex="1" parent="1">
          <mxGeometry x="750" y="1920" width="290" height="100" as="geometry" />
        </mxCell>
        <mxCell id="Dmu5rAs_sLpRuxzt0D4c-58" value="&lt;span style=&quot;font-size: 30px&quot;&gt;节点管理&lt;/span&gt;" style="rounded=0;whiteSpace=wrap;html=1;sketch=1;labelBackgroundColor=none;fontSize=30;fontFamily=Comic Sans MS;" vertex="1" parent="1">
          <mxGeometry x="-180" y="1481" width="150" height="69" as="geometry" />
        </mxCell>
        <mxCell id="Dmu5rAs_sLpRuxzt0D4c-62" value="&lt;span style=&quot;font-size: 30px&quot;&gt;采集中心&lt;/span&gt;" style="rounded=0;whiteSpace=wrap;html=1;sketch=1;labelBackgroundColor=none;fontSize=30;fontFamily=Comic Sans MS;" vertex="1" parent="1">
          <mxGeometry x="-180" y="1570" width="150" height="69" as="geometry" />
        </mxCell>
        <mxCell id="Dmu5rAs_sLpRuxzt0D4c-63" value="&lt;span style=&quot;font-size: 30px&quot;&gt;Agent管理&lt;/span&gt;" style="rounded=0;whiteSpace=wrap;html=1;sketch=1;labelBackgroundColor=none;fontSize=30;fontFamily=Comic Sans MS;" vertex="1" parent="1">
          <mxGeometry x="-180" y="1661.5" width="150" height="69" as="geometry" />
        </mxCell>
        <mxCell id="Dmu5rAs_sLpRuxzt0D4c-64" value="监控告警" style="rounded=0;whiteSpace=wrap;html=1;sketch=1;labelBackgroundColor=none;fontSize=30;fontFamily=Comic Sans MS;" vertex="1" parent="1">
          <mxGeometry x="-180" y="1754" width="150" height="69" as="geometry" />
        </mxCell>
        <mxCell id="Dmu5rAs_sLpRuxzt0D4c-65" value="&lt;span style=&quot;font-size: 30px&quot;&gt;系统管理&lt;/span&gt;" style="rounded=0;whiteSpace=wrap;html=1;sketch=1;labelBackgroundColor=none;fontSize=30;fontFamily=Comic Sans MS;" vertex="1" parent="1">
          <mxGeometry x="-180" y="1842" width="150" height="69" as="geometry" />
        </mxCell>
        <mxCell id="Dmu5rAs_sLpRuxzt0D4c-66" value="&lt;font style=&quot;font-size: 20px;&quot;&gt;Windows主机管理&lt;/font&gt;" style="ellipse;whiteSpace=wrap;html=1;rounded=0;fontFamily=Comic Sans MS;fontSize=20;sketch=1;" vertex="1" parent="1">
          <mxGeometry x="-20" y="1485.5" width="120" height="60" as="geometry" />
        </mxCell>
        <mxCell id="Dmu5rAs_sLpRuxzt0D4c-68" value="AIX主机管理" style="ellipse;whiteSpace=wrap;html=1;rounded=0;fontFamily=Comic Sans MS;fontSize=20;sketch=1;" vertex="1" parent="1">
          <mxGeometry x="110" y="1485.5" width="120" height="60" as="geometry" />
        </mxCell>
        <mxCell id="Dmu5rAs_sLpRuxzt0D4c-69" value="开机自启动" style="ellipse;whiteSpace=wrap;html=1;rounded=0;fontFamily=Comic Sans MS;fontSize=20;sketch=1;" vertex="1" parent="1">
          <mxGeometry x="240" y="1485.5" width="120" height="60" as="geometry" />
        </mxCell>
        <mxCell id="Dmu5rAs_sLpRuxzt0D4c-70" value="Automation Agent的批量部署和管控" style="ellipse;whiteSpace=wrap;html=1;rounded=0;fontFamily=Comic Sans MS;fontSize=20;sketch=1;" vertex="1" parent="1">
          <mxGeometry x="370" y="1485.5" width="120" height="60" as="geometry" />
        </mxCell>
        <mxCell id="Dmu5rAs_sLpRuxzt0D4c-71" value="批处理" style="ellipse;whiteSpace=wrap;html=1;rounded=0;fontFamily=Comic Sans MS;fontSize=20;sketch=1;" vertex="1" parent="1">
          <mxGeometry x="500" y="1485.5" width="120" height="60" as="geometry" />
        </mxCell>
        <mxCell id="Dmu5rAs_sLpRuxzt0D4c-72" value="标签管理" style="ellipse;whiteSpace=wrap;html=1;rounded=0;fontFamily=Comic Sans MS;fontSize=20;sketch=1;" vertex="1" parent="1">
          <mxGeometry x="630" y="1485.5" width="120" height="60" as="geometry" />
        </mxCell>
        <mxCell id="Dmu5rAs_sLpRuxzt0D4c-73" value="Linux主机管理" style="ellipse;whiteSpace=wrap;html=1;rounded=0;fontFamily=Comic Sans MS;fontSize=20;sketch=1;" vertex="1" parent="1">
          <mxGeometry x="760" y="1485.5" width="120" height="60" as="geometry" />
        </mxCell>
        <mxCell id="Dmu5rAs_sLpRuxzt0D4c-74" value="操作日志" style="ellipse;whiteSpace=wrap;html=1;rounded=0;fontFamily=Comic Sans MS;fontSize=20;sketch=1;" vertex="1" parent="1">
          <mxGeometry x="890" y="1485.5" width="120" height="60" as="geometry" />
        </mxCell>
        <mxCell id="Dmu5rAs_sLpRuxzt0D4c-75" value="&lt;font style=&quot;font-size: 20px&quot;&gt;模板库&lt;/font&gt;" style="ellipse;whiteSpace=wrap;html=1;rounded=0;fontFamily=Comic Sans MS;fontSize=20;sketch=1;" vertex="1" parent="1">
          <mxGeometry x="-20" y="1574.5" width="120" height="60" as="geometry" />
        </mxCell>
        <mxCell id="Dmu5rAs_sLpRuxzt0D4c-76" value="日志采集监控" style="ellipse;whiteSpace=wrap;html=1;rounded=0;fontFamily=Comic Sans MS;fontSize=20;sketch=1;" vertex="1" parent="1">
          <mxGeometry x="110" y="1574.5" width="120" height="60" as="geometry" />
        </mxCell>
        <mxCell id="Dmu5rAs_sLpRuxzt0D4c-77" value="指标采集监控" style="ellipse;whiteSpace=wrap;html=1;rounded=0;fontFamily=Comic Sans MS;fontSize=20;sketch=1;" vertex="1" parent="1">
          <mxGeometry x="240" y="1574.5" width="120" height="60" as="geometry" />
        </mxCell>
        <mxCell id="Dmu5rAs_sLpRuxzt0D4c-78" value="其他采集监控" style="ellipse;whiteSpace=wrap;html=1;rounded=0;fontFamily=Comic Sans MS;fontSize=20;sketch=1;" vertex="1" parent="1">
          <mxGeometry x="370" y="1574.5" width="120" height="60" as="geometry" />
        </mxCell>
        <mxCell id="Dmu5rAs_sLpRuxzt0D4c-79" value="任务日志" style="ellipse;whiteSpace=wrap;html=1;rounded=0;fontFamily=Comic Sans MS;fontSize=20;sketch=1;" vertex="1" parent="1">
          <mxGeometry x="500" y="1574.5" width="120" height="60" as="geometry" />
        </mxCell>
        <mxCell id="Dmu5rAs_sLpRuxzt0D4c-80" value="基础监控集成" style="ellipse;whiteSpace=wrap;html=1;rounded=0;fontFamily=Comic Sans MS;fontSize=20;sketch=1;" vertex="1" parent="1">
          <mxGeometry x="630" y="1574.5" width="120" height="60" as="geometry" />
        </mxCell>
        <mxCell id="Dmu5rAs_sLpRuxzt0D4c-81" value="开源监控集成" style="ellipse;whiteSpace=wrap;html=1;rounded=0;fontFamily=Comic Sans MS;fontSize=20;sketch=1;" vertex="1" parent="1">
          <mxGeometry x="760" y="1574.5" width="120" height="60" as="geometry" />
        </mxCell>
        <mxCell id="Dmu5rAs_sLpRuxzt0D4c-82" value="监控宝、透视宝集成" style="ellipse;whiteSpace=wrap;html=1;rounded=0;fontFamily=Comic Sans MS;fontSize=20;sketch=1;" vertex="1" parent="1">
          <mxGeometry x="890" y="1574.5" width="120" height="60" as="geometry" />
        </mxCell>
        <mxCell id="Dmu5rAs_sLpRuxzt0D4c-83" value="&lt;font style=&quot;font-size: 20px&quot;&gt;版本管理&lt;/font&gt;" style="ellipse;whiteSpace=wrap;html=1;rounded=0;fontFamily=Comic Sans MS;fontSize=20;sketch=1;" vertex="1" parent="1">
          <mxGeometry x="-20" y="1666" width="120" height="60" as="geometry" />
        </mxCell>
        <mxCell id="Dmu5rAs_sLpRuxzt0D4c-84" value="导入管理" style="ellipse;whiteSpace=wrap;html=1;rounded=0;fontFamily=Comic Sans MS;fontSize=20;sketch=1;" vertex="1" parent="1">
          <mxGeometry x="110" y="1666" width="120" height="60" as="geometry" />
        </mxCell>
        <mxCell id="Dmu5rAs_sLpRuxzt0D4c-85" value="下载管理" style="ellipse;whiteSpace=wrap;html=1;rounded=0;fontFamily=Comic Sans MS;fontSize=20;sketch=1;" vertex="1" parent="1">
          <mxGeometry x="240" y="1666" width="120" height="60" as="geometry" />
        </mxCell>
        <mxCell id="Dmu5rAs_sLpRuxzt0D4c-91" value="&lt;font style=&quot;font-size: 20px&quot;&gt;Agent状态监控告警&lt;/font&gt;" style="ellipse;whiteSpace=wrap;html=1;rounded=0;fontFamily=Comic Sans MS;fontSize=20;sketch=1;" vertex="1" parent="1">
          <mxGeometry x="-20" y="1758.5" width="120" height="60" as="geometry" />
        </mxCell>
        <mxCell id="Dmu5rAs_sLpRuxzt0D4c-92" value="采集任务状态监控告警" style="ellipse;whiteSpace=wrap;html=1;rounded=0;fontFamily=Comic Sans MS;fontSize=20;sketch=1;" vertex="1" parent="1">
          <mxGeometry x="110" y="1758.5" width="120" height="60" as="geometry" />
        </mxCell>
        <mxCell id="Dmu5rAs_sLpRuxzt0D4c-99" value="&lt;font style=&quot;font-size: 20px&quot;&gt;熔断保护设置&lt;/font&gt;" style="ellipse;whiteSpace=wrap;html=1;rounded=0;fontFamily=Comic Sans MS;fontSize=20;sketch=1;" vertex="1" parent="1">
          <mxGeometry x="-20" y="1846.5" width="120" height="60" as="geometry" />
        </mxCell>
        <mxCell id="Dmu5rAs_sLpRuxzt0D4c-100" value="配置管理" style="ellipse;whiteSpace=wrap;html=1;rounded=0;fontFamily=Comic Sans MS;fontSize=20;sketch=1;" vertex="1" parent="1">
          <mxGeometry x="110" y="1846.5" width="120" height="60" as="geometry" />
        </mxCell>
        <mxCell id="Dmu5rAs_sLpRuxzt0D4c-107" value="&lt;span style=&quot;font-size: 30px&quot;&gt;数据转换&lt;/span&gt;" style="rounded=0;whiteSpace=wrap;html=1;sketch=1;labelBackgroundColor=none;fontSize=30;fontFamily=Comic Sans MS;" vertex="1" parent="1">
          <mxGeometry x="-180" y="1370" width="150" height="100" as="geometry" />
        </mxCell>
        <mxCell id="Dmu5rAs_sLpRuxzt0D4c-108" value="标准转换" style="rhombus;whiteSpace=wrap;html=1;rounded=0;fontFamily=Comic Sans MS;fontSize=30;sketch=1;" vertex="1" parent="1">
          <mxGeometry x="-20" y="1370" width="370" height="100" as="geometry" />
        </mxCell>
        <mxCell id="Dmu5rAs_sLpRuxzt0D4c-110" value="&lt;span style=&quot;font-size: 30px&quot;&gt;数据解析&lt;/span&gt;" style="rounded=0;whiteSpace=wrap;html=1;sketch=1;labelBackgroundColor=none;fontSize=30;fontFamily=Comic Sans MS;" vertex="1" parent="1">
          <mxGeometry x="460" y="1370" width="150" height="100" as="geometry" />
        </mxCell>
        <mxCell id="Dmu5rAs_sLpRuxzt0D4c-111" value="标准解析" style="rhombus;whiteSpace=wrap;html=1;rounded=0;fontFamily=Comic Sans MS;fontSize=30;sketch=1;" vertex="1" parent="1">
          <mxGeometry x="620" y="1370" width="370" height="100" as="geometry" />
        </mxCell>
        <mxCell id="Dmu5rAs_sLpRuxzt0D4c-116" value="&lt;div style=&quot;font-size: 30px;&quot;&gt;&lt;span style=&quot;font-size: 30px;&quot;&gt;监控中心 DOMA&lt;/span&gt;&lt;br style=&quot;font-size: 30px;&quot;&gt;&lt;/div&gt;" style="shape=ext;double=1;rounded=1;whiteSpace=wrap;html=1;labelBackgroundColor=none;sketch=1;fontFamily=Comic Sans MS;fontSize=30;verticalAlign=top;" vertex="1" parent="1">
          <mxGeometry x="-270" y="-1080" width="230" height="350" as="geometry" />
        </mxCell>
        <mxCell id="Dmu5rAs_sLpRuxzt0D4c-117" value="&lt;h2 style=&quot;font-size: 35px;&quot;&gt;&lt;font style=&quot;font-size: 35px;&quot;&gt;数据采集预处理&lt;/font&gt;&lt;/h2&gt;" style="rounded=1;whiteSpace=wrap;html=1;sketch=1;fontFamily=Comic Sans MS;fontSize=35;fontStyle=0;" vertex="1" parent="1">
          <mxGeometry x="1050" y="1360" width="60" height="660" as="geometry" />
        </mxCell>
        <mxCell id="Dmu5rAs_sLpRuxzt0D4c-119" value="&lt;h2 style=&quot;font-size: 38px;&quot;&gt;&lt;font style=&quot;font-size: 38px;&quot;&gt;数据处理层&lt;/font&gt;&lt;/h2&gt;" style="rounded=1;whiteSpace=wrap;html=1;sketch=1;fontFamily=Comic Sans MS;fontSize=38;" vertex="1" parent="1">
          <mxGeometry x="-400" y="370" width="60" height="820" as="geometry" />
        </mxCell>
        <mxCell id="Dmu5rAs_sLpRuxzt0D4c-120" value="" style="rounded=1;whiteSpace=wrap;html=1;sketch=1;dashed=1;fontFamily=Comic Sans MS;" vertex="1" parent="1">
          <mxGeometry x="-331" y="360" width="1491" height="830" as="geometry" />
        </mxCell>
        <mxCell id="Dmu5rAs_sLpRuxzt0D4c-121" value="数据处理" style="shape=ext;double=1;rounded=1;whiteSpace=wrap;html=1;labelBackgroundColor=none;sketch=1;fontFamily=Comic Sans MS;fontSize=20;" vertex="1" parent="1">
          <mxGeometry x="-310" y="1045" width="330" height="100" as="geometry" />
        </mxCell>
        <mxCell id="Dmu5rAs_sLpRuxzt0D4c-122" value="数据建模" style="shape=ext;double=1;rounded=1;whiteSpace=wrap;html=1;labelBackgroundColor=none;sketch=1;fontFamily=Comic Sans MS;fontSize=20;" vertex="1" parent="1">
          <mxGeometry x="30" y="1045" width="330" height="100" as="geometry" />
        </mxCell>
        <mxCell id="Dmu5rAs_sLpRuxzt0D4c-123" value="&lt;div&gt;数据分析&lt;/div&gt;" style="shape=ext;double=1;rounded=1;whiteSpace=wrap;html=1;labelBackgroundColor=none;sketch=1;fontFamily=Comic Sans MS;fontSize=20;" vertex="1" parent="1">
          <mxGeometry x="370" y="1045" width="330" height="100" as="geometry" />
        </mxCell>
        <mxCell id="Dmu5rAs_sLpRuxzt0D4c-126" value="" style="shape=singleArrow;direction=north;whiteSpace=wrap;html=1;rounded=0;labelBackgroundColor=none;sketch=1;fontSize=38;fontFamily=Comic Sans MS;" vertex="1" parent="1">
          <mxGeometry x="-250" y="1190" width="100" height="130" as="geometry" />
        </mxCell>
        <mxCell id="Dmu5rAs_sLpRuxzt0D4c-127" value="" style="shape=singleArrow;direction=north;whiteSpace=wrap;html=1;rounded=0;labelBackgroundColor=none;sketch=1;fontSize=38;fontFamily=Comic Sans MS;" vertex="1" parent="1">
          <mxGeometry x="343" y="1190" width="100" height="130" as="geometry" />
        </mxCell>
        <mxCell id="Dmu5rAs_sLpRuxzt0D4c-128" value="" style="shape=singleArrow;direction=north;whiteSpace=wrap;html=1;rounded=0;labelBackgroundColor=none;sketch=1;fontSize=38;fontFamily=Comic Sans MS;" vertex="1" parent="1">
          <mxGeometry x="640" y="1190" width="100" height="130" as="geometry" />
        </mxCell>
        <mxCell id="Dmu5rAs_sLpRuxzt0D4c-129" value="" style="shape=singleArrow;direction=north;whiteSpace=wrap;html=1;rounded=0;labelBackgroundColor=none;sketch=1;fontSize=38;fontFamily=Comic Sans MS;" vertex="1" parent="1">
          <mxGeometry x="930" y="1190" width="100" height="130" as="geometry" />
        </mxCell>
        <mxCell id="Dmu5rAs_sLpRuxzt0D4c-130" value="" style="shape=singleArrow;direction=north;whiteSpace=wrap;html=1;rounded=0;labelBackgroundColor=none;sketch=1;fontSize=38;fontFamily=Comic Sans MS;" vertex="1" parent="1">
          <mxGeometry x="30" y="1190" width="100" height="130" as="geometry" />
        </mxCell>
        <mxCell id="Dmu5rAs_sLpRuxzt0D4c-136" value="&lt;div&gt;数据存储&lt;/div&gt;" style="shape=ext;double=1;rounded=1;whiteSpace=wrap;html=1;labelBackgroundColor=none;sketch=1;fontFamily=Comic Sans MS;fontSize=20;" vertex="1" parent="1">
          <mxGeometry x="710" y="1045" width="330" height="100" as="geometry" />
        </mxCell>
        <mxCell id="Dmu5rAs_sLpRuxzt0D4c-137" value="&lt;div&gt;········&lt;/div&gt;" style="shape=ext;double=1;rounded=1;whiteSpace=wrap;html=1;labelBackgroundColor=none;sketch=1;fontFamily=Comic Sans MS;fontSize=20;" vertex="1" parent="1">
          <mxGeometry x="1050" y="1045" width="100" height="100" as="geometry" />
        </mxCell>
        <mxCell id="Dmu5rAs_sLpRuxzt0D4c-138" value="" style="shape=singleArrow;direction=north;whiteSpace=wrap;html=1;rounded=0;labelBackgroundColor=none;sketch=1;fontSize=38;fontFamily=Comic Sans MS;" vertex="1" parent="1">
          <mxGeometry x="-258.5" y="230" width="100" height="130" as="geometry" />
        </mxCell>
        <mxCell id="Dmu5rAs_sLpRuxzt0D4c-139" value="" style="shape=singleArrow;direction=north;whiteSpace=wrap;html=1;rounded=0;labelBackgroundColor=none;sketch=1;fontSize=38;fontFamily=Comic Sans MS;rotation=-180;" vertex="1" parent="1">
          <mxGeometry x="334.5" y="230" width="100" height="130" as="geometry" />
        </mxCell>
        <mxCell id="Dmu5rAs_sLpRuxzt0D4c-141" value="" style="shape=singleArrow;direction=north;whiteSpace=wrap;html=1;rounded=0;labelBackgroundColor=none;sketch=1;fontSize=38;fontFamily=Comic Sans MS;rotation=-180;" vertex="1" parent="1">
          <mxGeometry x="921.5" y="230" width="100" height="130" as="geometry" />
        </mxCell>
        <mxCell id="Dmu5rAs_sLpRuxzt0D4c-142" value="" style="shape=singleArrow;direction=north;whiteSpace=wrap;html=1;rounded=0;labelBackgroundColor=none;sketch=1;fontSize=38;fontFamily=Comic Sans MS;" vertex="1" parent="1">
          <mxGeometry x="21.5" y="230" width="100" height="130" as="geometry" />
        </mxCell>
        <mxCell id="Dmu5rAs_sLpRuxzt0D4c-143" value="" style="verticalLabelPosition=bottom;verticalAlign=top;html=1;shape=mxgraph.basic.rect;fillColor2=none;strokeWidth=1;size=20;indent=5;rounded=0;labelBackgroundColor=none;sketch=1;fontFamily=Comic Sans MS;fontSize=38;" vertex="1" parent="1">
          <mxGeometry x="-280" y="390" width="270" height="650" as="geometry" />
        </mxCell>
        <mxCell id="Dmu5rAs_sLpRuxzt0D4c-144" value="" style="verticalLabelPosition=bottom;verticalAlign=top;html=1;shape=mxgraph.basic.rect;fillColor2=none;strokeWidth=1;size=20;indent=5;rounded=0;labelBackgroundColor=none;sketch=1;fontFamily=Comic Sans MS;fontSize=38;" vertex="1" parent="1">
          <mxGeometry x="60" y="390" width="270" height="650" as="geometry" />
        </mxCell>
        <mxCell id="Dmu5rAs_sLpRuxzt0D4c-148" value="&lt;span style=&quot;font-size: 30px&quot;&gt;数据解析&lt;/span&gt;" style="rounded=0;whiteSpace=wrap;html=1;sketch=1;labelBackgroundColor=none;fontSize=30;fontFamily=Comic Sans MS;" vertex="1" parent="1">
          <mxGeometry x="-259" y="410" width="229" height="80" as="geometry" />
        </mxCell>
        <mxCell id="Dmu5rAs_sLpRuxzt0D4c-168" value="&lt;span style=&quot;font-size: 30px&quot;&gt;数据转换&lt;/span&gt;" style="rounded=0;whiteSpace=wrap;html=1;sketch=1;labelBackgroundColor=none;fontSize=30;fontFamily=Comic Sans MS;" vertex="1" parent="1">
          <mxGeometry x="-259.5" y="510" width="229" height="80" as="geometry" />
        </mxCell>
        <mxCell id="Dmu5rAs_sLpRuxzt0D4c-169" value="数据脱敏" style="rounded=0;whiteSpace=wrap;html=1;sketch=1;labelBackgroundColor=none;fontSize=30;fontFamily=Comic Sans MS;" vertex="1" parent="1">
          <mxGeometry x="-258.5" y="610" width="229" height="80" as="geometry" />
        </mxCell>
        <mxCell id="Dmu5rAs_sLpRuxzt0D4c-170" value="数据字典" style="rounded=0;whiteSpace=wrap;html=1;sketch=1;labelBackgroundColor=none;fontSize=30;fontFamily=Comic Sans MS;" vertex="1" parent="1">
          <mxGeometry x="-259" y="710" width="229" height="80" as="geometry" />
        </mxCell>
        <mxCell id="Dmu5rAs_sLpRuxzt0D4c-173" value="&lt;span style=&quot;font-size: 30px&quot;&gt;······&lt;/span&gt;" style="rounded=0;whiteSpace=wrap;html=1;sketch=1;labelBackgroundColor=none;fontSize=30;fontFamily=Comic Sans MS;" vertex="1" parent="1">
          <mxGeometry x="-259.5" y="820" width="229" height="80" as="geometry" />
        </mxCell>
        <mxCell id="Dmu5rAs_sLpRuxzt0D4c-174" value="&lt;span style=&quot;font-size: 30px&quot;&gt;逻辑分支&lt;/span&gt;" style="rounded=0;whiteSpace=wrap;html=1;sketch=1;labelBackgroundColor=none;fontSize=30;fontFamily=Comic Sans MS;" vertex="1" parent="1">
          <mxGeometry x="-260" y="920" width="229" height="80" as="geometry" />
        </mxCell>
        <mxCell id="Dmu5rAs_sLpRuxzt0D4c-175" value="" style="verticalLabelPosition=bottom;verticalAlign=top;html=1;shape=mxgraph.basic.rect;fillColor2=none;strokeWidth=1;size=20;indent=5;rounded=0;labelBackgroundColor=none;sketch=1;fontFamily=Comic Sans MS;fontSize=38;" vertex="1" parent="1">
          <mxGeometry x="400" y="390" width="270" height="650" as="geometry" />
        </mxCell>
        <mxCell id="Dmu5rAs_sLpRuxzt0D4c-176" value="" style="verticalLabelPosition=bottom;verticalAlign=top;html=1;shape=mxgraph.basic.rect;fillColor2=none;strokeWidth=1;size=20;indent=5;rounded=0;labelBackgroundColor=none;sketch=1;fontFamily=Comic Sans MS;fontSize=38;" vertex="1" parent="1">
          <mxGeometry x="740" y="390" width="270" height="650" as="geometry" />
        </mxCell>
        <mxCell id="Dmu5rAs_sLpRuxzt0D4c-177" value="数据聚合" style="rounded=0;whiteSpace=wrap;html=1;sketch=1;labelBackgroundColor=none;fontSize=30;fontFamily=Comic Sans MS;" vertex="1" parent="1">
          <mxGeometry x="80.75" y="410" width="229" height="80" as="geometry" />
        </mxCell>
        <mxCell id="Dmu5rAs_sLpRuxzt0D4c-178" value="关联维表" style="rounded=0;whiteSpace=wrap;html=1;sketch=1;labelBackgroundColor=none;fontSize=30;fontFamily=Comic Sans MS;" vertex="1" parent="1">
          <mxGeometry x="80.25" y="510" width="229" height="80" as="geometry" />
        </mxCell>
        <mxCell id="Dmu5rAs_sLpRuxzt0D4c-179" value="join算子" style="rounded=0;whiteSpace=wrap;html=1;sketch=1;labelBackgroundColor=none;fontSize=30;fontFamily=Comic Sans MS;" vertex="1" parent="1">
          <mxGeometry x="81.25" y="610" width="229" height="80" as="geometry" />
        </mxCell>
        <mxCell id="Dmu5rAs_sLpRuxzt0D4c-180" value="四则运算" style="rounded=0;whiteSpace=wrap;html=1;sketch=1;labelBackgroundColor=none;fontSize=30;fontFamily=Comic Sans MS;" vertex="1" parent="1">
          <mxGeometry x="80.75" y="710" width="229" height="80" as="geometry" />
        </mxCell>
        <mxCell id="Dmu5rAs_sLpRuxzt0D4c-181" value="······" style="rounded=0;whiteSpace=wrap;html=1;sketch=1;labelBackgroundColor=none;fontSize=30;fontFamily=Comic Sans MS;" vertex="1" parent="1">
          <mxGeometry x="80.25" y="820" width="229" height="80" as="geometry" />
        </mxCell>
        <mxCell id="Dmu5rAs_sLpRuxzt0D4c-182" value="输出到kafka" style="rounded=0;whiteSpace=wrap;html=1;sketch=1;labelBackgroundColor=none;fontSize=30;fontFamily=Comic Sans MS;" vertex="1" parent="1">
          <mxGeometry x="79.75" y="920" width="229" height="80" as="geometry" />
        </mxCell>
        <mxCell id="Dmu5rAs_sLpRuxzt0D4c-183" value="分布式列式数据库" style="rounded=0;whiteSpace=wrap;html=1;sketch=1;labelBackgroundColor=none;fontSize=30;fontFamily=Comic Sans MS;" vertex="1" parent="1">
          <mxGeometry x="420.75" y="410" width="229" height="80" as="geometry" />
        </mxCell>
        <mxCell id="Dmu5rAs_sLpRuxzt0D4c-184" value="定期存储" style="rounded=0;whiteSpace=wrap;html=1;sketch=1;labelBackgroundColor=none;fontSize=30;fontFamily=Comic Sans MS;" vertex="1" parent="1">
          <mxGeometry x="420.25" y="510" width="229" height="80" as="geometry" />
        </mxCell>
        <mxCell id="Dmu5rAs_sLpRuxzt0D4c-185" value="&lt;span style=&quot;font-size: 30px&quot;&gt;数据解析&lt;/span&gt;" style="rounded=0;whiteSpace=wrap;html=1;sketch=1;labelBackgroundColor=none;fontSize=30;fontFamily=Comic Sans MS;" vertex="1" parent="1">
          <mxGeometry x="421.25" y="610" width="229" height="80" as="geometry" />
        </mxCell>
        <mxCell id="Dmu5rAs_sLpRuxzt0D4c-186" value="数据立方" style="rounded=0;whiteSpace=wrap;html=1;sketch=1;labelBackgroundColor=none;fontSize=30;fontFamily=Comic Sans MS;" vertex="1" parent="1">
          <mxGeometry x="420.75" y="710" width="229" height="80" as="geometry" />
        </mxCell>
        <mxCell id="Dmu5rAs_sLpRuxzt0D4c-187" value="分级存储" style="rounded=0;whiteSpace=wrap;html=1;sketch=1;labelBackgroundColor=none;fontSize=30;fontFamily=Comic Sans MS;" vertex="1" parent="1">
          <mxGeometry x="420.25" y="820" width="229" height="80" as="geometry" />
        </mxCell>
        <mxCell id="Dmu5rAs_sLpRuxzt0D4c-188" value="异常修复" style="rounded=0;whiteSpace=wrap;html=1;sketch=1;labelBackgroundColor=none;fontSize=30;fontFamily=Comic Sans MS;" vertex="1" parent="1">
          <mxGeometry x="419.75" y="920" width="229" height="80" as="geometry" />
        </mxCell>
        <mxCell id="Dmu5rAs_sLpRuxzt0D4c-189" value="可视化建模" style="rounded=0;whiteSpace=wrap;html=1;sketch=1;labelBackgroundColor=none;fontSize=30;fontFamily=Comic Sans MS;" vertex="1" parent="1">
          <mxGeometry x="761" y="410" width="229" height="80" as="geometry" />
        </mxCell>
        <mxCell id="Dmu5rAs_sLpRuxzt0D4c-190" value="变量自定义" style="rounded=0;whiteSpace=wrap;html=1;sketch=1;labelBackgroundColor=none;fontSize=30;fontFamily=Comic Sans MS;" vertex="1" parent="1">
          <mxGeometry x="760.5" y="510" width="229" height="80" as="geometry" />
        </mxCell>
        <mxCell id="Dmu5rAs_sLpRuxzt0D4c-191" value="内置查询函数" style="rounded=0;whiteSpace=wrap;html=1;sketch=1;labelBackgroundColor=none;fontSize=30;fontFamily=Comic Sans MS;" vertex="1" parent="1">
          <mxGeometry x="761.5" y="610" width="229" height="80" as="geometry" />
        </mxCell>
        <mxCell id="Dmu5rAs_sLpRuxzt0D4c-192" value="拖拽式编辑" style="rounded=0;whiteSpace=wrap;html=1;sketch=1;labelBackgroundColor=none;fontSize=30;fontFamily=Comic Sans MS;" vertex="1" parent="1">
          <mxGeometry x="761" y="710" width="229" height="80" as="geometry" />
        </mxCell>
        <mxCell id="Dmu5rAs_sLpRuxzt0D4c-193" value="&lt;span style=&quot;font-size: 30px&quot;&gt;······&lt;/span&gt;" style="rounded=0;whiteSpace=wrap;html=1;sketch=1;labelBackgroundColor=none;fontSize=30;fontFamily=Comic Sans MS;" vertex="1" parent="1">
          <mxGeometry x="760.5" y="820" width="229" height="80" as="geometry" />
        </mxCell>
        <mxCell id="Dmu5rAs_sLpRuxzt0D4c-194" value="标准API接口" style="rounded=0;whiteSpace=wrap;html=1;sketch=1;labelBackgroundColor=none;fontSize=30;fontFamily=Comic Sans MS;" vertex="1" parent="1">
          <mxGeometry x="760" y="920" width="229" height="80" as="geometry" />
        </mxCell>
        <mxCell id="Dmu5rAs_sLpRuxzt0D4c-196" value="&lt;div style=&quot;font-size: 30px;&quot;&gt;&lt;span style=&quot;font-size: 30px;&quot;&gt;事件中心 DOEM&lt;/span&gt;&lt;br style=&quot;font-size: 30px;&quot;&gt;&lt;/div&gt;" style="shape=ext;double=1;rounded=1;whiteSpace=wrap;html=1;labelBackgroundColor=none;sketch=1;fontFamily=Comic Sans MS;fontSize=30;verticalAlign=top;" vertex="1" parent="1">
          <mxGeometry x="-270" y="-720" width="230" height="350" as="geometry" />
        </mxCell>
        <mxCell id="Dmu5rAs_sLpRuxzt0D4c-197" value="&lt;div style=&quot;font-size: 30px;&quot;&gt;&lt;span style=&quot;font-size: 30px;&quot;&gt;自动化作业Automation&lt;/span&gt;&lt;br style=&quot;font-size: 30px;&quot;&gt;&lt;/div&gt;" style="shape=ext;double=1;rounded=1;whiteSpace=wrap;html=1;labelBackgroundColor=none;sketch=1;fontFamily=Comic Sans MS;fontSize=30;verticalAlign=top;" vertex="1" parent="1">
          <mxGeometry x="-270" y="-360" width="230" height="350" as="geometry" />
        </mxCell>
        <mxCell id="Dmu5rAs_sLpRuxzt0D4c-199" value="&lt;div style=&quot;font-size: 30px;&quot;&gt;&lt;span style=&quot;font-size: 30px;&quot;&gt;日志中心 DOLA&lt;/span&gt;&lt;br style=&quot;font-size: 30px;&quot;&gt;&lt;/div&gt;" style="shape=ext;double=1;rounded=1;whiteSpace=wrap;html=1;labelBackgroundColor=none;sketch=1;fontFamily=Comic Sans MS;fontSize=30;verticalAlign=top;" vertex="1" parent="1">
          <mxGeometry x="-270" y="-1800" width="230" height="350" as="geometry" />
        </mxCell>
        <mxCell id="Dmu5rAs_sLpRuxzt0D4c-515" value="" style="edgeStyle=orthogonalEdgeStyle;curved=0;rounded=1;sketch=1;orthogonalLoop=1;jettySize=auto;html=1;fontFamily=Comic Sans MS;fontSize=30;fontColor=#FFFFFF;strokeColor=#736CA8;" edge="1" parent="1" source="Dmu5rAs_sLpRuxzt0D4c-200" target="Dmu5rAs_sLpRuxzt0D4c-514">
          <mxGeometry relative="1" as="geometry" />
        </mxCell>
        <mxCell id="Dmu5rAs_sLpRuxzt0D4c-200" value="&lt;div style=&quot;font-size: 30px;&quot;&gt;&lt;span style=&quot;font-size: 30px;&quot;&gt;算法中心 DOIA&lt;/span&gt;&lt;br style=&quot;font-size: 30px;&quot;&gt;&lt;/div&gt;" style="shape=ext;double=1;rounded=1;whiteSpace=wrap;html=1;labelBackgroundColor=none;sketch=1;fontFamily=Comic Sans MS;fontSize=30;verticalAlign=top;" vertex="1" parent="1">
          <mxGeometry x="-270" y="-1440" width="230" height="350" as="geometry" />
        </mxCell>
        <mxCell id="Dmu5rAs_sLpRuxzt0D4c-201" value="&lt;div style=&quot;font-size: 30px;&quot;&gt;指标中心 DOMM&lt;/div&gt;" style="shape=ext;double=1;rounded=1;whiteSpace=wrap;html=1;labelBackgroundColor=none;sketch=1;fontFamily=Comic Sans MS;fontSize=30;verticalAlign=top;" vertex="1" parent="1">
          <mxGeometry x="-270" y="-2160" width="230" height="350" as="geometry" />
        </mxCell>
        <mxCell id="Dmu5rAs_sLpRuxzt0D4c-205" value="对象数据：CMDB&lt;br&gt;指标数据：DODB&lt;br&gt;算法服务：DOIA&lt;br&gt;说明：" style="shape=document;whiteSpace=wrap;html=1;boundedLbl=1;rounded=0;sketch=1;fontSize=25;verticalAlign=top;align=left;fontFamily=Comic Sans MS;" vertex="1" parent="1">
          <mxGeometry x="-260" y="-2060" width="210" height="230" as="geometry" />
        </mxCell>
        <mxCell id="Dmu5rAs_sLpRuxzt0D4c-206" value="日志采集：CDC、Logstash、Filebeat&lt;br&gt;日志数据：DODB&lt;br&gt;说明：" style="shape=document;whiteSpace=wrap;html=1;boundedLbl=1;rounded=0;sketch=1;fontSize=25;verticalAlign=top;align=left;fontFamily=Comic Sans MS;" vertex="1" parent="1">
          <mxGeometry x="-260" y="-1720" width="210" height="230" as="geometry" />
        </mxCell>
        <mxCell id="Dmu5rAs_sLpRuxzt0D4c-207" value="支撑：DOEM、DOLA、DOMM、第三方&lt;br&gt;&lt;span&gt;自监控&lt;/span&gt;：算法任务&lt;br&gt;算法服务：DOIA&lt;br&gt;说明：" style="shape=document;whiteSpace=wrap;html=1;boundedLbl=1;rounded=0;sketch=1;fontSize=25;verticalAlign=top;align=left;fontFamily=Comic Sans MS;" vertex="1" parent="1">
          <mxGeometry x="-260" y="-1350" width="210" height="230" as="geometry" />
        </mxCell>
        <mxCell id="Dmu5rAs_sLpRuxzt0D4c-208" value="对象数据：CMDB&lt;br&gt;指标数据：DODB&lt;br&gt;算法服务：DOIA&lt;br&gt;时间服务：DOEM&lt;br&gt;说明：" style="shape=document;whiteSpace=wrap;html=1;boundedLbl=1;rounded=0;sketch=1;fontSize=25;verticalAlign=top;align=left;fontFamily=Comic Sans MS;" vertex="1" parent="1">
          <mxGeometry x="-260" y="-980" width="210" height="230" as="geometry" />
        </mxCell>
        <mxCell id="Dmu5rAs_sLpRuxzt0D4c-209" value="对象数据：CMDB&lt;br&gt;指标数据：DODB&lt;br&gt;算法服务：DOIA&lt;br&gt;说明：" style="shape=document;whiteSpace=wrap;html=1;boundedLbl=1;rounded=0;sketch=1;fontSize=25;verticalAlign=top;align=left;fontFamily=Comic Sans MS;" vertex="1" parent="1">
          <mxGeometry x="-260" y="-620" width="210" height="230" as="geometry" />
        </mxCell>
        <mxCell id="Dmu5rAs_sLpRuxzt0D4c-210" value="对象数据：CMDB&lt;br&gt;指标数据：DODB&lt;br&gt;算法服务：DOIA&lt;br&gt;说明：" style="shape=document;whiteSpace=wrap;html=1;boundedLbl=1;rounded=0;sketch=1;fontSize=25;verticalAlign=top;align=left;fontFamily=Comic Sans MS;" vertex="1" parent="1">
          <mxGeometry x="-260" y="-250" width="210" height="230" as="geometry" />
        </mxCell>
        <mxCell id="Dmu5rAs_sLpRuxzt0D4c-211" value="指标服务" style="rounded=1;whiteSpace=wrap;html=1;sketch=1;fontSize=30;align=center;verticalAlign=middle;fontFamily=Comic Sans MS;" vertex="1" parent="1">
          <mxGeometry x="-29.5" y="-1980" width="249.5" height="170" as="geometry" />
        </mxCell>
        <mxCell id="Dmu5rAs_sLpRuxzt0D4c-212" value="指标场景" style="rounded=1;whiteSpace=wrap;html=1;sketch=1;fontSize=30;align=center;verticalAlign=middle;fontFamily=Comic Sans MS;" vertex="1" parent="1">
          <mxGeometry x="-31" y="-2160" width="249.5" height="170" as="geometry" />
        </mxCell>
        <mxCell id="Dmu5rAs_sLpRuxzt0D4c-214" value="告警规则" style="rounded=0;whiteSpace=wrap;html=1;sketch=1;fontSize=20;align=center;verticalAlign=middle;fontFamily=Comic Sans MS;" vertex="1" parent="1">
          <mxGeometry x="240" y="-1860" width="150" height="50" as="geometry" />
        </mxCell>
        <mxCell id="Dmu5rAs_sLpRuxzt0D4c-216" value="&lt;div&gt;指标预览&lt;/div&gt;" style="rounded=0;whiteSpace=wrap;html=1;sketch=1;fontSize=20;align=center;verticalAlign=middle;fontFamily=Comic Sans MS;" vertex="1" parent="1">
          <mxGeometry x="240" y="-1920" width="150" height="50" as="geometry" />
        </mxCell>
        <mxCell id="Dmu5rAs_sLpRuxzt0D4c-217" value="指标管理" style="rounded=0;whiteSpace=wrap;html=1;sketch=1;fontSize=20;align=center;verticalAlign=middle;fontFamily=Comic Sans MS;" vertex="1" parent="1">
          <mxGeometry x="240" y="-1980" width="150" height="50" as="geometry" />
        </mxCell>
        <mxCell id="Dmu5rAs_sLpRuxzt0D4c-218" value="链路对象健康度" style="rounded=0;whiteSpace=wrap;html=1;sketch=1;fontSize=20;align=center;verticalAlign=middle;fontFamily=Comic Sans MS;" vertex="1" parent="1">
          <mxGeometry x="400" y="-1860" width="150" height="50" as="geometry" />
        </mxCell>
        <mxCell id="Dmu5rAs_sLpRuxzt0D4c-219" value="&lt;div&gt;监控策略&lt;/div&gt;" style="rounded=0;whiteSpace=wrap;html=1;sketch=1;fontSize=20;align=center;verticalAlign=middle;fontFamily=Comic Sans MS;" vertex="1" parent="1">
          <mxGeometry x="400" y="-1920" width="150" height="50" as="geometry" />
        </mxCell>
        <mxCell id="Dmu5rAs_sLpRuxzt0D4c-220" value="对象指标管理" style="rounded=0;whiteSpace=wrap;html=1;sketch=1;fontSize=20;align=center;verticalAlign=middle;fontFamily=Comic Sans MS;" vertex="1" parent="1">
          <mxGeometry x="400" y="-1980" width="150" height="50" as="geometry" />
        </mxCell>
        <mxCell id="Dmu5rAs_sLpRuxzt0D4c-222" value="链路指标管理" style="rounded=0;whiteSpace=wrap;html=1;sketch=1;fontSize=20;align=center;verticalAlign=middle;fontFamily=Comic Sans MS;" vertex="1" parent="1">
          <mxGeometry x="560" y="-1920" width="150" height="50" as="geometry" />
        </mxCell>
        <mxCell id="Dmu5rAs_sLpRuxzt0D4c-223" value="健康度模型定义" style="rounded=0;whiteSpace=wrap;html=1;sketch=1;fontSize=20;align=center;verticalAlign=middle;fontFamily=Comic Sans MS;" vertex="1" parent="1">
          <mxGeometry x="560" y="-1980" width="150" height="50" as="geometry" />
        </mxCell>
        <mxCell id="Dmu5rAs_sLpRuxzt0D4c-225" value="&lt;div&gt;数据源定义&lt;/div&gt;" style="rounded=0;whiteSpace=wrap;html=1;sketch=1;fontSize=20;align=center;verticalAlign=middle;fontFamily=Comic Sans MS;" vertex="1" parent="1">
          <mxGeometry x="720" y="-1920" width="150" height="50" as="geometry" />
        </mxCell>
        <mxCell id="Dmu5rAs_sLpRuxzt0D4c-226" value="调用链管理" style="rounded=0;whiteSpace=wrap;html=1;sketch=1;fontSize=20;align=center;verticalAlign=middle;fontFamily=Comic Sans MS;" vertex="1" parent="1">
          <mxGeometry x="720" y="-1980" width="150" height="50" as="geometry" />
        </mxCell>
        <mxCell id="Dmu5rAs_sLpRuxzt0D4c-228" value="指标健康度阈值" style="rounded=0;whiteSpace=wrap;html=1;sketch=1;fontSize=20;align=center;verticalAlign=middle;fontFamily=Comic Sans MS;" vertex="1" parent="1">
          <mxGeometry x="880" y="-1920" width="150" height="50" as="geometry" />
        </mxCell>
        <mxCell id="Dmu5rAs_sLpRuxzt0D4c-229" value="&lt;div&gt;接入原始/衍生指标&lt;/div&gt;" style="rounded=0;whiteSpace=wrap;html=1;sketch=1;fontSize=20;align=center;verticalAlign=middle;fontFamily=Comic Sans MS;" vertex="1" parent="1">
          <mxGeometry x="880" y="-1980" width="150" height="50" as="geometry" />
        </mxCell>
        <mxCell id="Dmu5rAs_sLpRuxzt0D4c-230" value="" style="rounded=0;whiteSpace=wrap;html=1;sketch=1;fontSize=20;align=center;verticalAlign=middle;fontFamily=Comic Sans MS;" vertex="1" parent="1">
          <mxGeometry x="240" y="-2040" width="150" height="50" as="geometry" />
        </mxCell>
        <mxCell id="Dmu5rAs_sLpRuxzt0D4c-231" value="AIops" style="rounded=0;whiteSpace=wrap;html=1;sketch=1;fontSize=20;align=center;verticalAlign=middle;fontFamily=Comic Sans MS;" vertex="1" parent="1">
          <mxGeometry x="240" y="-2100" width="150" height="50" as="geometry" />
        </mxCell>
        <mxCell id="Dmu5rAs_sLpRuxzt0D4c-232" value="&lt;div&gt;监控中心（工作台）&lt;/div&gt;" style="rounded=0;whiteSpace=wrap;html=1;sketch=1;fontSize=20;align=center;verticalAlign=middle;fontFamily=Comic Sans MS;" vertex="1" parent="1">
          <mxGeometry x="240" y="-2160" width="150" height="50" as="geometry" />
        </mxCell>
        <mxCell id="Dmu5rAs_sLpRuxzt0D4c-234" value="&lt;div&gt;第三方&lt;/div&gt;&lt;div&gt;创新应用&lt;/div&gt;" style="rounded=0;whiteSpace=wrap;html=1;sketch=1;fontSize=20;align=center;verticalAlign=middle;fontFamily=Comic Sans MS;" vertex="1" parent="1">
          <mxGeometry x="400" y="-2100" width="150" height="50" as="geometry" />
        </mxCell>
        <mxCell id="Dmu5rAs_sLpRuxzt0D4c-235" value="报告报表" style="rounded=0;whiteSpace=wrap;html=1;sketch=1;fontSize=20;align=center;verticalAlign=middle;fontFamily=Comic Sans MS;" vertex="1" parent="1">
          <mxGeometry x="400" y="-2160" width="150" height="50" as="geometry" />
        </mxCell>
        <mxCell id="Dmu5rAs_sLpRuxzt0D4c-238" value="数字仪表盘" style="rounded=0;whiteSpace=wrap;html=1;sketch=1;fontSize=20;align=center;verticalAlign=middle;fontFamily=Comic Sans MS;" vertex="1" parent="1">
          <mxGeometry x="560" y="-2160" width="150" height="50" as="geometry" />
        </mxCell>
        <mxCell id="Dmu5rAs_sLpRuxzt0D4c-241" value="可视化大屏" style="rounded=0;whiteSpace=wrap;html=1;sketch=1;fontSize=20;align=center;verticalAlign=middle;fontFamily=Comic Sans MS;" vertex="1" parent="1">
          <mxGeometry x="720" y="-2160" width="150" height="50" as="geometry" />
        </mxCell>
        <mxCell id="Dmu5rAs_sLpRuxzt0D4c-244" value="事件管理中心" style="rounded=0;whiteSpace=wrap;html=1;sketch=1;fontSize=20;align=center;verticalAlign=middle;fontFamily=Comic Sans MS;" vertex="1" parent="1">
          <mxGeometry x="880" y="-2160" width="150" height="50" as="geometry" />
        </mxCell>
        <mxCell id="Dmu5rAs_sLpRuxzt0D4c-245" value="日志处理" style="rounded=1;whiteSpace=wrap;html=1;sketch=1;fontSize=30;align=center;verticalAlign=middle;fontFamily=Comic Sans MS;" vertex="1" parent="1">
          <mxGeometry x="-29.5" y="-1500" width="249.5" height="50" as="geometry" />
        </mxCell>
        <mxCell id="Dmu5rAs_sLpRuxzt0D4c-246" value="日志应用" style="rounded=1;whiteSpace=wrap;html=1;sketch=1;fontSize=30;align=center;verticalAlign=middle;fontFamily=Comic Sans MS;" vertex="1" parent="1">
          <mxGeometry x="-31" y="-1800" width="249.5" height="230" as="geometry" />
        </mxCell>
        <mxCell id="Dmu5rAs_sLpRuxzt0D4c-247" value="&lt;div&gt;Grok拆分&lt;/div&gt;" style="rounded=0;whiteSpace=wrap;html=1;sketch=1;fontSize=20;align=center;verticalAlign=middle;fontFamily=Comic Sans MS;" vertex="1" parent="1">
          <mxGeometry x="240" y="-1500" width="150" height="50" as="geometry" />
        </mxCell>
        <mxCell id="Dmu5rAs_sLpRuxzt0D4c-248" value="&lt;div&gt;压缩存储&lt;/div&gt;" style="rounded=0;whiteSpace=wrap;html=1;sketch=1;fontSize=20;align=center;verticalAlign=middle;fontFamily=Comic Sans MS;" vertex="1" parent="1">
          <mxGeometry x="240" y="-1560" width="150" height="50" as="geometry" />
        </mxCell>
        <mxCell id="Dmu5rAs_sLpRuxzt0D4c-249" value="常用搜索保存与管理" style="rounded=0;whiteSpace=wrap;html=1;sketch=1;fontSize=20;align=center;verticalAlign=middle;fontFamily=Comic Sans MS;" vertex="1" parent="1">
          <mxGeometry x="240" y="-1620" width="150" height="50" as="geometry" />
        </mxCell>
        <mxCell id="Dmu5rAs_sLpRuxzt0D4c-250" value="&lt;div&gt;JSON转换&lt;/div&gt;" style="rounded=0;whiteSpace=wrap;html=1;sketch=1;fontSize=20;align=center;verticalAlign=middle;fontFamily=Comic Sans MS;" vertex="1" parent="1">
          <mxGeometry x="400" y="-1500" width="150" height="50" as="geometry" />
        </mxCell>
        <mxCell id="Dmu5rAs_sLpRuxzt0D4c-251" value="&lt;div&gt;顺序存储&lt;/div&gt;" style="rounded=0;whiteSpace=wrap;html=1;sketch=1;fontSize=20;align=center;verticalAlign=middle;fontFamily=Comic Sans MS;" vertex="1" parent="1">
          <mxGeometry x="400" y="-1560" width="150" height="50" as="geometry" />
        </mxCell>
        <mxCell id="Dmu5rAs_sLpRuxzt0D4c-252" value="日志搜索结果导出" style="rounded=0;whiteSpace=wrap;html=1;sketch=1;fontSize=20;align=center;verticalAlign=middle;fontFamily=Comic Sans MS;" vertex="1" parent="1">
          <mxGeometry x="400" y="-1620" width="150" height="50" as="geometry" />
        </mxCell>
        <mxCell id="Dmu5rAs_sLpRuxzt0D4c-253" value="&lt;div&gt;XML解析&lt;/div&gt;" style="rounded=0;whiteSpace=wrap;html=1;sketch=1;fontSize=20;align=center;verticalAlign=middle;fontFamily=Comic Sans MS;" vertex="1" parent="1">
          <mxGeometry x="560" y="-1500" width="150" height="50" as="geometry" />
        </mxCell>
        <mxCell id="Dmu5rAs_sLpRuxzt0D4c-254" value="备份/还原" style="rounded=0;whiteSpace=wrap;html=1;sketch=1;fontSize=20;align=center;verticalAlign=middle;fontFamily=Comic Sans MS;" vertex="1" parent="1">
          <mxGeometry x="560" y="-1560" width="150" height="50" as="geometry" />
        </mxCell>
        <mxCell id="Dmu5rAs_sLpRuxzt0D4c-256" value="字段分割" style="rounded=0;whiteSpace=wrap;html=1;sketch=1;fontSize=20;align=center;verticalAlign=middle;fontFamily=Comic Sans MS;" vertex="1" parent="1">
          <mxGeometry x="720" y="-1500" width="150" height="50" as="geometry" />
        </mxCell>
        <mxCell id="Dmu5rAs_sLpRuxzt0D4c-257" value="自定义存储" style="rounded=0;whiteSpace=wrap;html=1;sketch=1;fontSize=20;align=center;verticalAlign=middle;fontFamily=Comic Sans MS;" vertex="1" parent="1">
          <mxGeometry x="720" y="-1560" width="150" height="50" as="geometry" />
        </mxCell>
        <mxCell id="Dmu5rAs_sLpRuxzt0D4c-259" value="&lt;div&gt;······&lt;/div&gt;" style="rounded=0;whiteSpace=wrap;html=1;sketch=1;fontSize=20;align=center;verticalAlign=middle;fontFamily=Comic Sans MS;" vertex="1" parent="1">
          <mxGeometry x="880" y="-1500" width="150" height="50" as="geometry" />
        </mxCell>
        <mxCell id="Dmu5rAs_sLpRuxzt0D4c-260" value="······" style="rounded=0;whiteSpace=wrap;html=1;sketch=1;fontSize=20;align=center;verticalAlign=middle;fontFamily=Comic Sans MS;" vertex="1" parent="1">
          <mxGeometry x="880" y="-1560" width="150" height="50" as="geometry" />
        </mxCell>
        <mxCell id="Dmu5rAs_sLpRuxzt0D4c-262" value="日志异常分析" style="rounded=0;whiteSpace=wrap;html=1;sketch=1;fontSize=20;align=center;verticalAlign=middle;fontFamily=Comic Sans MS;" vertex="1" parent="1">
          <mxGeometry x="240" y="-1680" width="150" height="50" as="geometry" />
        </mxCell>
        <mxCell id="Dmu5rAs_sLpRuxzt0D4c-263" value="日志划词分析" style="rounded=0;whiteSpace=wrap;html=1;sketch=1;fontSize=20;align=center;verticalAlign=middle;fontFamily=Comic Sans MS;" vertex="1" parent="1">
          <mxGeometry x="240" y="-1740" width="150" height="50" as="geometry" />
        </mxCell>
        <mxCell id="Dmu5rAs_sLpRuxzt0D4c-264" value="&lt;div&gt;日志全文检索&lt;/div&gt;" style="rounded=0;whiteSpace=wrap;html=1;sketch=1;fontSize=20;align=center;verticalAlign=middle;fontFamily=Comic Sans MS;" vertex="1" parent="1">
          <mxGeometry x="240" y="-1800" width="150" height="50" as="geometry" />
        </mxCell>
        <mxCell id="Dmu5rAs_sLpRuxzt0D4c-265" value="日志可视化分析" style="rounded=0;whiteSpace=wrap;html=1;sketch=1;fontSize=20;align=center;verticalAlign=middle;fontFamily=Comic Sans MS;" vertex="1" parent="1">
          <mxGeometry x="400" y="-1680" width="150" height="50" as="geometry" />
        </mxCell>
        <mxCell id="Dmu5rAs_sLpRuxzt0D4c-266" value="日志上下文分析" style="rounded=0;whiteSpace=wrap;html=1;sketch=1;fontSize=20;align=center;verticalAlign=middle;fontFamily=Comic Sans MS;" vertex="1" parent="1">
          <mxGeometry x="400" y="-1740" width="150" height="50" as="geometry" />
        </mxCell>
        <mxCell id="Dmu5rAs_sLpRuxzt0D4c-267" value="&lt;div&gt;SPL高级搜索&lt;/div&gt;" style="rounded=0;whiteSpace=wrap;html=1;sketch=1;fontSize=20;align=center;verticalAlign=middle;fontFamily=Comic Sans MS;" vertex="1" parent="1">
          <mxGeometry x="400" y="-1800" width="150" height="50" as="geometry" />
        </mxCell>
        <mxCell id="Dmu5rAs_sLpRuxzt0D4c-268" value="日志脱敏" style="rounded=0;whiteSpace=wrap;html=1;sketch=1;fontSize=20;align=center;verticalAlign=middle;fontFamily=Comic Sans MS;" vertex="1" parent="1">
          <mxGeometry x="560" y="-1680" width="150" height="50" as="geometry" />
        </mxCell>
        <mxCell id="Dmu5rAs_sLpRuxzt0D4c-269" value="日志模式识别" style="rounded=0;whiteSpace=wrap;html=1;sketch=1;fontSize=20;align=center;verticalAlign=middle;fontFamily=Comic Sans MS;" vertex="1" parent="1">
          <mxGeometry x="560" y="-1740" width="150" height="50" as="geometry" />
        </mxCell>
        <mxCell id="Dmu5rAs_sLpRuxzt0D4c-270" value="搜索联想" style="rounded=0;whiteSpace=wrap;html=1;sketch=1;fontSize=20;align=center;verticalAlign=middle;fontFamily=Comic Sans MS;" vertex="1" parent="1">
          <mxGeometry x="560" y="-1800" width="150" height="50" as="geometry" />
        </mxCell>
        <mxCell id="Dmu5rAs_sLpRuxzt0D4c-271" value="&lt;div&gt;关联查询&lt;/div&gt;" style="rounded=0;whiteSpace=wrap;html=1;sketch=1;fontSize=20;align=center;verticalAlign=middle;fontFamily=Comic Sans MS;" vertex="1" parent="1">
          <mxGeometry x="720" y="-1680" width="150" height="50" as="geometry" />
        </mxCell>
        <mxCell id="Dmu5rAs_sLpRuxzt0D4c-272" value="规则监控" style="rounded=0;whiteSpace=wrap;html=1;sketch=1;fontSize=20;align=center;verticalAlign=middle;fontFamily=Comic Sans MS;" vertex="1" parent="1">
          <mxGeometry x="720" y="-1740" width="150" height="50" as="geometry" />
        </mxCell>
        <mxCell id="Dmu5rAs_sLpRuxzt0D4c-273" value="日志搜索记录" style="rounded=0;whiteSpace=wrap;html=1;sketch=1;fontSize=20;align=center;verticalAlign=middle;fontFamily=Comic Sans MS;" vertex="1" parent="1">
          <mxGeometry x="720" y="-1800" width="150" height="50" as="geometry" />
        </mxCell>
        <mxCell id="Dmu5rAs_sLpRuxzt0D4c-274" value="日志调用链追踪" style="rounded=0;whiteSpace=wrap;html=1;sketch=1;fontSize=20;align=center;verticalAlign=middle;fontFamily=Comic Sans MS;" vertex="1" parent="1">
          <mxGeometry x="880" y="-1680" width="150" height="50" as="geometry" />
        </mxCell>
        <mxCell id="Dmu5rAs_sLpRuxzt0D4c-275" value="日志异常检测" style="rounded=0;whiteSpace=wrap;html=1;sketch=1;fontSize=20;align=center;verticalAlign=middle;fontFamily=Comic Sans MS;" vertex="1" parent="1">
          <mxGeometry x="880" y="-1740" width="150" height="50" as="geometry" />
        </mxCell>
        <mxCell id="Dmu5rAs_sLpRuxzt0D4c-276" value="字段值过滤" style="rounded=0;whiteSpace=wrap;html=1;sketch=1;fontSize=20;align=center;verticalAlign=middle;fontFamily=Comic Sans MS;" vertex="1" parent="1">
          <mxGeometry x="880" y="-1800" width="150" height="50" as="geometry" />
        </mxCell>
        <mxCell id="Dmu5rAs_sLpRuxzt0D4c-277" value="日志存储" style="rounded=1;whiteSpace=wrap;html=1;sketch=1;fontSize=30;align=center;verticalAlign=middle;fontFamily=Comic Sans MS;" vertex="1" parent="1">
          <mxGeometry x="-30" y="-1560" width="249.5" height="50" as="geometry" />
        </mxCell>
        <mxCell id="Dmu5rAs_sLpRuxzt0D4c-278" value="算法管理" style="rounded=1;whiteSpace=wrap;html=1;sketch=1;fontSize=30;align=center;verticalAlign=middle;fontFamily=Comic Sans MS;" vertex="1" parent="1">
          <mxGeometry x="-29.5" y="-1250" width="249.5" height="160" as="geometry" />
        </mxCell>
        <mxCell id="Dmu5rAs_sLpRuxzt0D4c-279" value="任务及算法实验室" style="rounded=1;whiteSpace=wrap;html=1;sketch=1;fontSize=30;align=center;verticalAlign=middle;fontFamily=Comic Sans MS;" vertex="1" parent="1">
          <mxGeometry x="-31" y="-1440" width="249.5" height="110" as="geometry" />
        </mxCell>
        <mxCell id="Dmu5rAs_sLpRuxzt0D4c-280" value="NoRan分析" style="rounded=0;whiteSpace=wrap;html=1;sketch=1;fontSize=20;align=center;verticalAlign=middle;fontFamily=Comic Sans MS;" vertex="1" parent="1">
          <mxGeometry x="240" y="-1140" width="150" height="50" as="geometry" />
        </mxCell>
        <mxCell id="Dmu5rAs_sLpRuxzt0D4c-281" value="日志模式识别" style="rounded=0;whiteSpace=wrap;html=1;sketch=1;fontSize=20;align=center;verticalAlign=middle;fontFamily=Comic Sans MS;" vertex="1" parent="1">
          <mxGeometry x="240" y="-1200" width="150" height="50" as="geometry" />
        </mxCell>
        <mxCell id="Dmu5rAs_sLpRuxzt0D4c-282" value="动态基线" style="rounded=0;whiteSpace=wrap;html=1;sketch=1;fontSize=20;align=center;verticalAlign=middle;fontFamily=Comic Sans MS;" vertex="1" parent="1">
          <mxGeometry x="240" y="-1260" width="150" height="50" as="geometry" />
        </mxCell>
        <mxCell id="Dmu5rAs_sLpRuxzt0D4c-283" value="基于语义相似性降噪" style="rounded=0;whiteSpace=wrap;html=1;sketch=1;fontSize=20;align=center;verticalAlign=middle;fontFamily=Comic Sans MS;" vertex="1" parent="1">
          <mxGeometry x="400" y="-1140" width="150" height="50" as="geometry" />
        </mxCell>
        <mxCell id="Dmu5rAs_sLpRuxzt0D4c-284" value="实时异常检测" style="rounded=0;whiteSpace=wrap;html=1;sketch=1;fontSize=20;align=center;verticalAlign=middle;fontFamily=Comic Sans MS;" vertex="1" parent="1">
          <mxGeometry x="400" y="-1200" width="150" height="50" as="geometry" />
        </mxCell>
        <mxCell id="Dmu5rAs_sLpRuxzt0D4c-285" value="自动阈值" style="rounded=0;whiteSpace=wrap;html=1;sketch=1;fontSize=20;align=center;verticalAlign=middle;fontFamily=Comic Sans MS;" vertex="1" parent="1">
          <mxGeometry x="400" y="-1260" width="150" height="50" as="geometry" />
        </mxCell>
        <mxCell id="Dmu5rAs_sLpRuxzt0D4c-286" value="基于树形搜索降噪" style="rounded=0;whiteSpace=wrap;html=1;sketch=1;fontSize=20;align=center;verticalAlign=middle;fontFamily=Comic Sans MS;" vertex="1" parent="1">
          <mxGeometry x="560" y="-1140" width="150" height="50" as="geometry" />
        </mxCell>
        <mxCell id="Dmu5rAs_sLpRuxzt0D4c-287" value="日志语义识别" style="rounded=0;whiteSpace=wrap;html=1;sketch=1;fontSize=20;align=center;verticalAlign=middle;fontFamily=Comic Sans MS;" vertex="1" parent="1">
          <mxGeometry x="560" y="-1200" width="150" height="50" as="geometry" />
        </mxCell>
        <mxCell id="Dmu5rAs_sLpRuxzt0D4c-288" value="Tima" style="rounded=0;whiteSpace=wrap;html=1;sketch=1;fontSize=20;align=center;verticalAlign=middle;fontFamily=Comic Sans MS;" vertex="1" parent="1">
          <mxGeometry x="560" y="-1260" width="150" height="50" as="geometry" />
        </mxCell>
        <mxCell id="Dmu5rAs_sLpRuxzt0D4c-289" value="Idice检测" style="rounded=0;whiteSpace=wrap;html=1;sketch=1;fontSize=20;align=center;verticalAlign=middle;fontFamily=Comic Sans MS;" vertex="1" parent="1">
          <mxGeometry x="720" y="-1140" width="150" height="50" as="geometry" />
        </mxCell>
        <mxCell id="Dmu5rAs_sLpRuxzt0D4c-290" value="ForFaDE分析" style="rounded=0;whiteSpace=wrap;html=1;sketch=1;fontSize=20;align=center;verticalAlign=middle;fontFamily=Comic Sans MS;" vertex="1" parent="1">
          <mxGeometry x="720" y="-1200" width="150" height="50" as="geometry" />
        </mxCell>
        <mxCell id="Dmu5rAs_sLpRuxzt0D4c-291" value="DWTima" style="rounded=0;whiteSpace=wrap;html=1;sketch=1;fontSize=20;align=center;verticalAlign=middle;fontFamily=Comic Sans MS;" vertex="1" parent="1">
          <mxGeometry x="720" y="-1260" width="150" height="50" as="geometry" />
        </mxCell>
        <mxCell id="Dmu5rAs_sLpRuxzt0D4c-292" value="······" style="rounded=0;whiteSpace=wrap;html=1;sketch=1;fontSize=20;align=center;verticalAlign=middle;fontFamily=Comic Sans MS;" vertex="1" parent="1">
          <mxGeometry x="880" y="-1140" width="150" height="50" as="geometry" />
        </mxCell>
        <mxCell id="Dmu5rAs_sLpRuxzt0D4c-293" value="MeREx分析" style="rounded=0;whiteSpace=wrap;html=1;sketch=1;fontSize=20;align=center;verticalAlign=middle;fontFamily=Comic Sans MS;" vertex="1" parent="1">
          <mxGeometry x="880" y="-1200" width="150" height="50" as="geometry" />
        </mxCell>
        <mxCell id="Dmu5rAs_sLpRuxzt0D4c-294" value="CWrnn/CW&lt;br&gt;prophet" style="rounded=0;whiteSpace=wrap;html=1;sketch=1;fontSize=20;align=center;verticalAlign=middle;fontFamily=Comic Sans MS;" vertex="1" parent="1">
          <mxGeometry x="880" y="-1260" width="150" height="50" as="geometry" />
        </mxCell>
        <mxCell id="Dmu5rAs_sLpRuxzt0D4c-295" value="默认泛型" style="rounded=0;whiteSpace=wrap;html=1;sketch=1;fontSize=20;align=center;verticalAlign=middle;fontFamily=Comic Sans MS;" vertex="1" parent="1">
          <mxGeometry x="240" y="-1320" width="150" height="50" as="geometry" />
        </mxCell>
        <mxCell id="Dmu5rAs_sLpRuxzt0D4c-296" value="动态调参" style="rounded=0;whiteSpace=wrap;html=1;sketch=1;fontSize=20;align=center;verticalAlign=middle;fontFamily=Comic Sans MS;" vertex="1" parent="1">
          <mxGeometry x="240" y="-1380" width="150" height="50" as="geometry" />
        </mxCell>
        <mxCell id="Dmu5rAs_sLpRuxzt0D4c-297" value="&lt;div&gt;算法任务管理&lt;/div&gt;" style="rounded=0;whiteSpace=wrap;html=1;sketch=1;fontSize=20;align=center;verticalAlign=middle;fontFamily=Comic Sans MS;" vertex="1" parent="1">
          <mxGeometry x="240" y="-1440" width="150" height="50" as="geometry" />
        </mxCell>
        <mxCell id="Dmu5rAs_sLpRuxzt0D4c-298" value="在线数据源定义" style="rounded=0;whiteSpace=wrap;html=1;sketch=1;fontSize=20;align=center;verticalAlign=middle;fontFamily=Comic Sans MS;" vertex="1" parent="1">
          <mxGeometry x="400" y="-1320" width="150" height="50" as="geometry" />
        </mxCell>
        <mxCell id="Dmu5rAs_sLpRuxzt0D4c-299" value="算法泛型发布与管理" style="rounded=0;whiteSpace=wrap;html=1;sketch=1;fontSize=20;align=center;verticalAlign=middle;fontFamily=Comic Sans MS;" vertex="1" parent="1">
          <mxGeometry x="400" y="-1380" width="150" height="50" as="geometry" />
        </mxCell>
        <mxCell id="Dmu5rAs_sLpRuxzt0D4c-300" value="在线任务/离线任务" style="rounded=0;whiteSpace=wrap;html=1;sketch=1;fontSize=20;align=center;verticalAlign=middle;fontFamily=Comic Sans MS;" vertex="1" parent="1">
          <mxGeometry x="400" y="-1440" width="150" height="50" as="geometry" />
        </mxCell>
        <mxCell id="Dmu5rAs_sLpRuxzt0D4c-301" value="离线数据源定义" style="rounded=0;whiteSpace=wrap;html=1;sketch=1;fontSize=20;align=center;verticalAlign=middle;fontFamily=Comic Sans MS;" vertex="1" parent="1">
          <mxGeometry x="560" y="-1320" width="150" height="50" as="geometry" />
        </mxCell>
        <mxCell id="Dmu5rAs_sLpRuxzt0D4c-302" value="模型对比与可视化" style="rounded=0;whiteSpace=wrap;html=1;sketch=1;fontSize=20;align=center;verticalAlign=middle;fontFamily=Comic Sans MS;" vertex="1" parent="1">
          <mxGeometry x="560" y="-1380" width="150" height="50" as="geometry" />
        </mxCell>
        <mxCell id="Dmu5rAs_sLpRuxzt0D4c-303" value="任务调度" style="rounded=0;whiteSpace=wrap;html=1;sketch=1;fontSize=20;align=center;verticalAlign=middle;fontFamily=Comic Sans MS;" vertex="1" parent="1">
          <mxGeometry x="560" y="-1440" width="150" height="50" as="geometry" />
        </mxCell>
        <mxCell id="Dmu5rAs_sLpRuxzt0D4c-306" value="任务模型查看与分析" style="rounded=0;whiteSpace=wrap;html=1;sketch=1;fontSize=20;align=center;verticalAlign=middle;fontFamily=Comic Sans MS;" vertex="1" parent="1">
          <mxGeometry x="720" y="-1440" width="150" height="50" as="geometry" />
        </mxCell>
        <mxCell id="Dmu5rAs_sLpRuxzt0D4c-309" value="算法实验台" style="rounded=0;whiteSpace=wrap;html=1;sketch=1;fontSize=20;align=center;verticalAlign=middle;fontFamily=Comic Sans MS;" vertex="1" parent="1">
          <mxGeometry x="880" y="-1440" width="150" height="50" as="geometry" />
        </mxCell>
        <mxCell id="Dmu5rAs_sLpRuxzt0D4c-310" value="监控指标" style="rounded=1;whiteSpace=wrap;html=1;sketch=1;fontSize=30;align=center;verticalAlign=middle;fontFamily=Comic Sans MS;" vertex="1" parent="1">
          <mxGeometry x="-28" y="-840" width="249.5" height="110" as="geometry" />
        </mxCell>
        <mxCell id="Dmu5rAs_sLpRuxzt0D4c-311" value="监控场景" style="rounded=1;whiteSpace=wrap;html=1;sketch=1;fontSize=30;align=center;verticalAlign=middle;fontFamily=Comic Sans MS;" vertex="1" parent="1">
          <mxGeometry x="-29.5" y="-1080" width="249.5" height="110" as="geometry" />
        </mxCell>
        <mxCell id="Dmu5rAs_sLpRuxzt0D4c-312" value="场景管理" style="rounded=0;whiteSpace=wrap;html=1;sketch=1;fontSize=20;align=center;verticalAlign=middle;fontFamily=Comic Sans MS;" vertex="1" parent="1">
          <mxGeometry x="241.5" y="-780" width="150" height="50" as="geometry" />
        </mxCell>
        <mxCell id="Dmu5rAs_sLpRuxzt0D4c-313" value="数据源定义" style="rounded=0;whiteSpace=wrap;html=1;sketch=1;fontSize=20;align=center;verticalAlign=middle;fontFamily=Comic Sans MS;" vertex="1" parent="1">
          <mxGeometry x="241.5" y="-840" width="150" height="50" as="geometry" />
        </mxCell>
        <mxCell id="Dmu5rAs_sLpRuxzt0D4c-314" value="指标分析" style="rounded=0;whiteSpace=wrap;html=1;sketch=1;fontSize=20;align=center;verticalAlign=middle;fontFamily=Comic Sans MS;" vertex="1" parent="1">
          <mxGeometry x="241.5" y="-900" width="150" height="50" as="geometry" />
        </mxCell>
        <mxCell id="Dmu5rAs_sLpRuxzt0D4c-315" value="调用链关联" style="rounded=0;whiteSpace=wrap;html=1;sketch=1;fontSize=20;align=center;verticalAlign=middle;fontFamily=Comic Sans MS;" vertex="1" parent="1">
          <mxGeometry x="401.5" y="-780" width="150" height="50" as="geometry" />
        </mxCell>
        <mxCell id="Dmu5rAs_sLpRuxzt0D4c-316" value="监控策略设定" style="rounded=0;whiteSpace=wrap;html=1;sketch=1;fontSize=20;align=center;verticalAlign=middle;fontFamily=Comic Sans MS;" vertex="1" parent="1">
          <mxGeometry x="401.5" y="-840" width="150" height="50" as="geometry" />
        </mxCell>
        <mxCell id="Dmu5rAs_sLpRuxzt0D4c-317" value="资源层级拓扑分析" style="rounded=0;whiteSpace=wrap;html=1;sketch=1;fontSize=20;align=center;verticalAlign=middle;fontFamily=Comic Sans MS;" vertex="1" parent="1">
          <mxGeometry x="401.5" y="-900" width="150" height="50" as="geometry" />
        </mxCell>
        <mxCell id="Dmu5rAs_sLpRuxzt0D4c-318" value="场景指标管理" style="rounded=0;whiteSpace=wrap;html=1;sketch=1;fontSize=20;align=center;verticalAlign=middle;fontFamily=Comic Sans MS;" vertex="1" parent="1">
          <mxGeometry x="561.5" y="-780" width="150" height="50" as="geometry" />
        </mxCell>
        <mxCell id="Dmu5rAs_sLpRuxzt0D4c-319" value="健康度计算" style="rounded=0;whiteSpace=wrap;html=1;sketch=1;fontSize=20;align=center;verticalAlign=middle;fontFamily=Comic Sans MS;" vertex="1" parent="1">
          <mxGeometry x="561.5" y="-840" width="150" height="50" as="geometry" />
        </mxCell>
        <mxCell id="Dmu5rAs_sLpRuxzt0D4c-320" value="业务链路拓扑分析" style="rounded=0;whiteSpace=wrap;html=1;sketch=1;fontSize=20;align=center;verticalAlign=middle;fontFamily=Comic Sans MS;" vertex="1" parent="1">
          <mxGeometry x="561.5" y="-900" width="150" height="50" as="geometry" />
        </mxCell>
        <mxCell id="Dmu5rAs_sLpRuxzt0D4c-321" value="监控规则" style="rounded=0;whiteSpace=wrap;html=1;sketch=1;fontSize=20;align=center;verticalAlign=middle;fontFamily=Comic Sans MS;" vertex="1" parent="1">
          <mxGeometry x="721.5" y="-780" width="150" height="50" as="geometry" />
        </mxCell>
        <mxCell id="Dmu5rAs_sLpRuxzt0D4c-322" value="智能算法告警" style="rounded=0;whiteSpace=wrap;html=1;sketch=1;fontSize=20;align=center;verticalAlign=middle;fontFamily=Comic Sans MS;" vertex="1" parent="1">
          <mxGeometry x="721.5" y="-840" width="150" height="50" as="geometry" />
        </mxCell>
        <mxCell id="Dmu5rAs_sLpRuxzt0D4c-323" value="告警数目及信息" style="rounded=0;whiteSpace=wrap;html=1;sketch=1;fontSize=20;align=center;verticalAlign=middle;fontFamily=Comic Sans MS;" vertex="1" parent="1">
          <mxGeometry x="721.5" y="-900" width="150" height="50" as="geometry" />
        </mxCell>
        <mxCell id="Dmu5rAs_sLpRuxzt0D4c-324" value="······" style="rounded=0;whiteSpace=wrap;html=1;sketch=1;fontSize=20;align=center;verticalAlign=middle;fontFamily=Comic Sans MS;" vertex="1" parent="1">
          <mxGeometry x="881.5" y="-780" width="150" height="50" as="geometry" />
        </mxCell>
        <mxCell id="Dmu5rAs_sLpRuxzt0D4c-325" value="静态阈值" style="rounded=0;whiteSpace=wrap;html=1;sketch=1;fontSize=20;align=center;verticalAlign=middle;fontFamily=Comic Sans MS;" vertex="1" parent="1">
          <mxGeometry x="881.5" y="-840" width="150" height="50" as="geometry" />
        </mxCell>
        <mxCell id="Dmu5rAs_sLpRuxzt0D4c-326" value="健康度回溯" style="rounded=0;whiteSpace=wrap;html=1;sketch=1;fontSize=20;align=center;verticalAlign=middle;fontFamily=Comic Sans MS;" vertex="1" parent="1">
          <mxGeometry x="881.5" y="-900" width="150" height="50" as="geometry" />
        </mxCell>
        <mxCell id="Dmu5rAs_sLpRuxzt0D4c-327" value="指标管理" style="rounded=0;whiteSpace=wrap;html=1;sketch=1;fontSize=20;align=center;verticalAlign=middle;fontFamily=Comic Sans MS;" vertex="1" parent="1">
          <mxGeometry x="241.5" y="-960" width="150" height="50" as="geometry" />
        </mxCell>
        <mxCell id="Dmu5rAs_sLpRuxzt0D4c-328" value="业务场景监控" style="rounded=0;whiteSpace=wrap;html=1;sketch=1;fontSize=20;align=center;verticalAlign=middle;fontFamily=Comic Sans MS;" vertex="1" parent="1">
          <mxGeometry x="241.5" y="-1020" width="150" height="50" as="geometry" />
        </mxCell>
        <mxCell id="Dmu5rAs_sLpRuxzt0D4c-329" value="健康度" style="rounded=0;whiteSpace=wrap;html=1;sketch=1;fontSize=20;align=center;verticalAlign=middle;fontFamily=Comic Sans MS;" vertex="1" parent="1">
          <mxGeometry x="241.5" y="-1080" width="150" height="50" as="geometry" />
        </mxCell>
        <mxCell id="Dmu5rAs_sLpRuxzt0D4c-330" value="数据源管理" style="rounded=0;whiteSpace=wrap;html=1;sketch=1;fontSize=20;align=center;verticalAlign=middle;fontFamily=Comic Sans MS;" vertex="1" parent="1">
          <mxGeometry x="401.5" y="-960" width="150" height="50" as="geometry" />
        </mxCell>
        <mxCell id="Dmu5rAs_sLpRuxzt0D4c-331" value="应用监控" style="rounded=0;whiteSpace=wrap;html=1;sketch=1;fontSize=20;align=center;verticalAlign=middle;fontFamily=Comic Sans MS;" vertex="1" parent="1">
          <mxGeometry x="401.5" y="-1020" width="150" height="50" as="geometry" />
        </mxCell>
        <mxCell id="Dmu5rAs_sLpRuxzt0D4c-332" value="指标信息" style="rounded=0;whiteSpace=wrap;html=1;sketch=1;fontSize=20;align=center;verticalAlign=middle;fontFamily=Comic Sans MS;" vertex="1" parent="1">
          <mxGeometry x="401.5" y="-1080" width="150" height="50" as="geometry" />
        </mxCell>
        <mxCell id="Dmu5rAs_sLpRuxzt0D4c-333" value="监控策略管理" style="rounded=0;whiteSpace=wrap;html=1;sketch=1;fontSize=20;align=center;verticalAlign=middle;fontFamily=Comic Sans MS;" vertex="1" parent="1">
          <mxGeometry x="561.5" y="-960" width="150" height="50" as="geometry" />
        </mxCell>
        <mxCell id="Dmu5rAs_sLpRuxzt0D4c-334" value="服务监控" style="rounded=0;whiteSpace=wrap;html=1;sketch=1;fontSize=20;align=center;verticalAlign=middle;fontFamily=Comic Sans MS;" vertex="1" parent="1">
          <mxGeometry x="561.5" y="-1020" width="150" height="50" as="geometry" />
        </mxCell>
        <mxCell id="Dmu5rAs_sLpRuxzt0D4c-335" value="告警事件" style="rounded=0;whiteSpace=wrap;html=1;sketch=1;fontSize=20;align=center;verticalAlign=middle;fontFamily=Comic Sans MS;" vertex="1" parent="1">
          <mxGeometry x="561.5" y="-1080" width="150" height="50" as="geometry" />
        </mxCell>
        <mxCell id="Dmu5rAs_sLpRuxzt0D4c-336" value="监控业务场景管理" style="rounded=0;whiteSpace=wrap;html=1;sketch=1;fontSize=20;align=center;verticalAlign=middle;fontFamily=Comic Sans MS;" vertex="1" parent="1">
          <mxGeometry x="721.5" y="-960" width="150" height="50" as="geometry" />
        </mxCell>
        <mxCell id="Dmu5rAs_sLpRuxzt0D4c-337" value="中间件监控" style="rounded=0;whiteSpace=wrap;html=1;sketch=1;fontSize=20;align=center;verticalAlign=middle;fontFamily=Comic Sans MS;" vertex="1" parent="1">
          <mxGeometry x="721.5" y="-1020" width="150" height="50" as="geometry" />
        </mxCell>
        <mxCell id="Dmu5rAs_sLpRuxzt0D4c-338" value="层级拓扑" style="rounded=0;whiteSpace=wrap;html=1;sketch=1;fontSize=20;align=center;verticalAlign=middle;fontFamily=Comic Sans MS;" vertex="1" parent="1">
          <mxGeometry x="721.5" y="-1080" width="150" height="50" as="geometry" />
        </mxCell>
        <mxCell id="Dmu5rAs_sLpRuxzt0D4c-339" value="资源整体预览" style="rounded=0;whiteSpace=wrap;html=1;sketch=1;fontSize=20;align=center;verticalAlign=middle;fontFamily=Comic Sans MS;" vertex="1" parent="1">
          <mxGeometry x="881.5" y="-960" width="150" height="50" as="geometry" />
        </mxCell>
        <mxCell id="Dmu5rAs_sLpRuxzt0D4c-340" value="基础资源监控" style="rounded=0;whiteSpace=wrap;html=1;sketch=1;fontSize=20;align=center;verticalAlign=middle;fontFamily=Comic Sans MS;" vertex="1" parent="1">
          <mxGeometry x="881.5" y="-1020" width="150" height="50" as="geometry" />
        </mxCell>
        <mxCell id="Dmu5rAs_sLpRuxzt0D4c-341" value="调用拓扑" style="rounded=0;whiteSpace=wrap;html=1;sketch=1;fontSize=20;align=center;verticalAlign=middle;fontFamily=Comic Sans MS;" vertex="1" parent="1">
          <mxGeometry x="881.5" y="-1080" width="150" height="50" as="geometry" />
        </mxCell>
        <mxCell id="Dmu5rAs_sLpRuxzt0D4c-342" value="事件管理" style="rounded=1;whiteSpace=wrap;html=1;sketch=1;fontSize=30;align=center;verticalAlign=middle;fontFamily=Comic Sans MS;" vertex="1" parent="1">
          <mxGeometry x="-28" y="-600" width="249.5" height="110" as="geometry" />
        </mxCell>
        <mxCell id="Dmu5rAs_sLpRuxzt0D4c-343" value="事件场景" style="rounded=1;whiteSpace=wrap;html=1;sketch=1;fontSize=30;align=center;verticalAlign=middle;fontFamily=Comic Sans MS;" vertex="1" parent="1">
          <mxGeometry x="-28" y="-720" width="249.5" height="110" as="geometry" />
        </mxCell>
        <mxCell id="Dmu5rAs_sLpRuxzt0D4c-344" value="发送引擎" style="rounded=0;whiteSpace=wrap;html=1;sketch=1;fontSize=20;align=center;verticalAlign=middle;fontFamily=Comic Sans MS;" vertex="1" parent="1">
          <mxGeometry x="243" y="-420" width="150" height="50" as="geometry" />
        </mxCell>
        <mxCell id="Dmu5rAs_sLpRuxzt0D4c-345" value="告警引擎" style="rounded=0;whiteSpace=wrap;html=1;sketch=1;fontSize=20;align=center;verticalAlign=middle;fontFamily=Comic Sans MS;" vertex="1" parent="1">
          <mxGeometry x="243" y="-480" width="150" height="50" as="geometry" />
        </mxCell>
        <mxCell id="Dmu5rAs_sLpRuxzt0D4c-346" value="消息模版配置" style="rounded=0;whiteSpace=wrap;html=1;sketch=1;fontSize=20;align=center;verticalAlign=middle;fontFamily=Comic Sans MS;" vertex="1" parent="1">
          <mxGeometry x="243" y="-540" width="150" height="50" as="geometry" />
        </mxCell>
        <mxCell id="Dmu5rAs_sLpRuxzt0D4c-348" value="抑制引擎" style="rounded=0;whiteSpace=wrap;html=1;sketch=1;fontSize=20;align=center;verticalAlign=middle;fontFamily=Comic Sans MS;" vertex="1" parent="1">
          <mxGeometry x="403" y="-480" width="150" height="50" as="geometry" />
        </mxCell>
        <mxCell id="Dmu5rAs_sLpRuxzt0D4c-349" value="告警组管理" style="rounded=0;whiteSpace=wrap;html=1;sketch=1;fontSize=20;align=center;verticalAlign=middle;fontFamily=Comic Sans MS;" vertex="1" parent="1">
          <mxGeometry x="403" y="-540" width="150" height="50" as="geometry" />
        </mxCell>
        <mxCell id="Dmu5rAs_sLpRuxzt0D4c-351" value="事件处理引擎" style="rounded=0;whiteSpace=wrap;html=1;sketch=1;fontSize=20;align=center;verticalAlign=middle;fontFamily=Comic Sans MS;" vertex="1" parent="1">
          <mxGeometry x="563" y="-480" width="150" height="50" as="geometry" />
        </mxCell>
        <mxCell id="Dmu5rAs_sLpRuxzt0D4c-352" value="算法合并" style="rounded=0;whiteSpace=wrap;html=1;sketch=1;fontSize=20;align=center;verticalAlign=middle;fontFamily=Comic Sans MS;" vertex="1" parent="1">
          <mxGeometry x="563" y="-540" width="150" height="50" as="geometry" />
        </mxCell>
        <mxCell id="Dmu5rAs_sLpRuxzt0D4c-354" value="算法引擎" style="rounded=0;whiteSpace=wrap;html=1;sketch=1;fontSize=20;align=center;verticalAlign=middle;fontFamily=Comic Sans MS;" vertex="1" parent="1">
          <mxGeometry x="723" y="-480" width="150" height="50" as="geometry" />
        </mxCell>
        <mxCell id="Dmu5rAs_sLpRuxzt0D4c-357" value="调度引擎" style="rounded=0;whiteSpace=wrap;html=1;sketch=1;fontSize=20;align=center;verticalAlign=middle;fontFamily=Comic Sans MS;" vertex="1" parent="1">
          <mxGeometry x="883" y="-480" width="150" height="50" as="geometry" />
        </mxCell>
        <mxCell id="Dmu5rAs_sLpRuxzt0D4c-359" value="告警通道设置" style="rounded=0;whiteSpace=wrap;html=1;sketch=1;fontSize=20;align=center;verticalAlign=middle;fontFamily=Comic Sans MS;" vertex="1" parent="1">
          <mxGeometry x="243" y="-600" width="150" height="50" as="geometry" />
        </mxCell>
        <mxCell id="Dmu5rAs_sLpRuxzt0D4c-360" value="告警自愈" style="rounded=0;whiteSpace=wrap;html=1;sketch=1;fontSize=20;align=center;verticalAlign=middle;fontFamily=Comic Sans MS;" vertex="1" parent="1">
          <mxGeometry x="243" y="-660" width="150" height="50" as="geometry" />
        </mxCell>
        <mxCell id="Dmu5rAs_sLpRuxzt0D4c-361" value="事件仪表盘" style="rounded=0;whiteSpace=wrap;html=1;sketch=1;fontSize=20;align=center;verticalAlign=middle;fontFamily=Comic Sans MS;" vertex="1" parent="1">
          <mxGeometry x="243" y="-720" width="150" height="50" as="geometry" />
        </mxCell>
        <mxCell id="Dmu5rAs_sLpRuxzt0D4c-362" value="告警源设置" style="rounded=0;whiteSpace=wrap;html=1;sketch=1;fontSize=20;align=center;verticalAlign=middle;fontFamily=Comic Sans MS;" vertex="1" parent="1">
          <mxGeometry x="403" y="-600" width="150" height="50" as="geometry" />
        </mxCell>
        <mxCell id="Dmu5rAs_sLpRuxzt0D4c-364" value="事件处置&amp;amp;管理" style="rounded=0;whiteSpace=wrap;html=1;sketch=1;fontSize=20;align=center;verticalAlign=middle;fontFamily=Comic Sans MS;" vertex="1" parent="1">
          <mxGeometry x="403" y="-720" width="150" height="50" as="geometry" />
        </mxCell>
        <mxCell id="Dmu5rAs_sLpRuxzt0D4c-365" value="收敛规则设定" style="rounded=0;whiteSpace=wrap;html=1;sketch=1;fontSize=20;align=center;verticalAlign=middle;fontFamily=Comic Sans MS;" vertex="1" parent="1">
          <mxGeometry x="563" y="-600" width="150" height="50" as="geometry" />
        </mxCell>
        <mxCell id="Dmu5rAs_sLpRuxzt0D4c-367" value="告警事件降噪" style="rounded=0;whiteSpace=wrap;html=1;sketch=1;fontSize=20;align=center;verticalAlign=middle;fontFamily=Comic Sans MS;" vertex="1" parent="1">
          <mxGeometry x="563" y="-720" width="150" height="50" as="geometry" />
        </mxCell>
        <mxCell id="Dmu5rAs_sLpRuxzt0D4c-368" value="处置策略设定/升降级" style="rounded=0;whiteSpace=wrap;html=1;sketch=1;fontSize=20;align=center;verticalAlign=middle;fontFamily=Comic Sans MS;" vertex="1" parent="1">
          <mxGeometry x="723" y="-600" width="150" height="50" as="geometry" />
        </mxCell>
        <mxCell id="Dmu5rAs_sLpRuxzt0D4c-370" value="告警合并" style="rounded=0;whiteSpace=wrap;html=1;sketch=1;fontSize=20;align=center;verticalAlign=middle;fontFamily=Comic Sans MS;" vertex="1" parent="1">
          <mxGeometry x="723" y="-720" width="150" height="50" as="geometry" />
        </mxCell>
        <mxCell id="Dmu5rAs_sLpRuxzt0D4c-371" value="发送记录" style="rounded=0;whiteSpace=wrap;html=1;sketch=1;fontSize=20;align=center;verticalAlign=middle;fontFamily=Comic Sans MS;" vertex="1" parent="1">
          <mxGeometry x="883" y="-600" width="150" height="50" as="geometry" />
        </mxCell>
        <mxCell id="Dmu5rAs_sLpRuxzt0D4c-373" value="告警静默" style="rounded=0;whiteSpace=wrap;html=1;sketch=1;fontSize=20;align=center;verticalAlign=middle;fontFamily=Comic Sans MS;" vertex="1" parent="1">
          <mxGeometry x="883" y="-720" width="150" height="50" as="geometry" />
        </mxCell>
        <mxCell id="Dmu5rAs_sLpRuxzt0D4c-374" value="&lt;span style=&quot;&quot;&gt;Automation&lt;/span&gt;服务" style="rounded=1;whiteSpace=wrap;html=1;sketch=1;fontSize=30;align=center;verticalAlign=middle;fontFamily=Comic Sans MS;" vertex="1" parent="1">
          <mxGeometry x="-29.5" y="-300" width="249.5" height="110" as="geometry" />
        </mxCell>
        <mxCell id="Dmu5rAs_sLpRuxzt0D4c-375" value="&lt;span style=&quot;&quot;&gt;Automation&lt;/span&gt;场景" style="rounded=1;whiteSpace=wrap;html=1;sketch=1;fontSize=30;align=center;verticalAlign=middle;fontFamily=Comic Sans MS;" vertex="1" parent="1">
          <mxGeometry x="-31" y="-360" width="249.5" height="50" as="geometry" />
        </mxCell>
        <mxCell id="Dmu5rAs_sLpRuxzt0D4c-376" value="" style="rounded=0;whiteSpace=wrap;html=1;sketch=1;fontSize=20;align=center;verticalAlign=middle;fontFamily=Comic Sans MS;" vertex="1" parent="1">
          <mxGeometry x="240" y="-60" width="150" height="50" as="geometry" />
        </mxCell>
        <mxCell id="Dmu5rAs_sLpRuxzt0D4c-377" value="集中式存储设备" style="rounded=0;whiteSpace=wrap;html=1;sketch=1;fontSize=20;align=center;verticalAlign=middle;fontFamily=Comic Sans MS;" vertex="1" parent="1">
          <mxGeometry x="240" y="-120" width="150" height="50" as="geometry" />
        </mxCell>
        <mxCell id="Dmu5rAs_sLpRuxzt0D4c-378" value="云管平台" style="rounded=0;whiteSpace=wrap;html=1;sketch=1;fontSize=20;align=center;verticalAlign=middle;fontFamily=Comic Sans MS;" vertex="1" parent="1">
          <mxGeometry x="240" y="-180" width="150" height="50" as="geometry" />
        </mxCell>
        <mxCell id="Dmu5rAs_sLpRuxzt0D4c-379" value="" style="rounded=0;whiteSpace=wrap;html=1;sketch=1;fontSize=20;align=center;verticalAlign=middle;fontFamily=Comic Sans MS;" vertex="1" parent="1">
          <mxGeometry x="400" y="-60" width="150" height="50" as="geometry" />
        </mxCell>
        <mxCell id="Dmu5rAs_sLpRuxzt0D4c-380" value="&lt;div&gt;网管平台&lt;/div&gt;" style="rounded=0;whiteSpace=wrap;html=1;sketch=1;fontSize=20;align=center;verticalAlign=middle;fontFamily=Comic Sans MS;" vertex="1" parent="1">
          <mxGeometry x="400" y="-120" width="150" height="50" as="geometry" />
        </mxCell>
        <mxCell id="Dmu5rAs_sLpRuxzt0D4c-381" value="数据库" style="rounded=0;whiteSpace=wrap;html=1;sketch=1;fontSize=20;align=center;verticalAlign=middle;fontFamily=Comic Sans MS;" vertex="1" parent="1">
          <mxGeometry x="400" y="-180" width="150" height="50" as="geometry" />
        </mxCell>
        <mxCell id="Dmu5rAs_sLpRuxzt0D4c-382" value="" style="rounded=0;whiteSpace=wrap;html=1;sketch=1;fontSize=20;align=center;verticalAlign=middle;fontFamily=Comic Sans MS;" vertex="1" parent="1">
          <mxGeometry x="560" y="-60" width="150" height="50" as="geometry" />
        </mxCell>
        <mxCell id="Dmu5rAs_sLpRuxzt0D4c-383" value="应用管理平台" style="rounded=0;whiteSpace=wrap;html=1;sketch=1;fontSize=20;align=center;verticalAlign=middle;fontFamily=Comic Sans MS;" vertex="1" parent="1">
          <mxGeometry x="560" y="-120" width="150" height="50" as="geometry" />
        </mxCell>
        <mxCell id="Dmu5rAs_sLpRuxzt0D4c-384" value="服务器" style="rounded=0;whiteSpace=wrap;html=1;sketch=1;fontSize=20;align=center;verticalAlign=middle;fontFamily=Comic Sans MS;" vertex="1" parent="1">
          <mxGeometry x="560" y="-180" width="150" height="50" as="geometry" />
        </mxCell>
        <mxCell id="Dmu5rAs_sLpRuxzt0D4c-385" value="" style="rounded=0;whiteSpace=wrap;html=1;sketch=1;fontSize=20;align=center;verticalAlign=middle;fontFamily=Comic Sans MS;" vertex="1" parent="1">
          <mxGeometry x="720" y="-60" width="150" height="50" as="geometry" />
        </mxCell>
        <mxCell id="Dmu5rAs_sLpRuxzt0D4c-386" value="" style="rounded=0;whiteSpace=wrap;html=1;sketch=1;fontSize=20;align=center;verticalAlign=middle;fontFamily=Comic Sans MS;" vertex="1" parent="1">
          <mxGeometry x="720" y="-120" width="150" height="50" as="geometry" />
        </mxCell>
        <mxCell id="Dmu5rAs_sLpRuxzt0D4c-387" value="中间件-Weblogic" style="rounded=0;whiteSpace=wrap;html=1;sketch=1;fontSize=20;align=center;verticalAlign=middle;fontFamily=Comic Sans MS;" vertex="1" parent="1">
          <mxGeometry x="720" y="-180" width="150" height="50" as="geometry" />
        </mxCell>
        <mxCell id="Dmu5rAs_sLpRuxzt0D4c-388" value="" style="rounded=0;whiteSpace=wrap;html=1;sketch=1;fontSize=20;align=center;verticalAlign=middle;fontFamily=Comic Sans MS;" vertex="1" parent="1">
          <mxGeometry x="880" y="-60" width="150" height="50" as="geometry" />
        </mxCell>
        <mxCell id="Dmu5rAs_sLpRuxzt0D4c-389" value="" style="rounded=0;whiteSpace=wrap;html=1;sketch=1;fontSize=20;align=center;verticalAlign=middle;fontFamily=Comic Sans MS;" vertex="1" parent="1">
          <mxGeometry x="880" y="-120" width="150" height="50" as="geometry" />
        </mxCell>
        <mxCell id="Dmu5rAs_sLpRuxzt0D4c-390" value="中间件-中创" style="rounded=0;whiteSpace=wrap;html=1;sketch=1;fontSize=20;align=center;verticalAlign=middle;fontFamily=Comic Sans MS;" vertex="1" parent="1">
          <mxGeometry x="880" y="-180" width="150" height="50" as="geometry" />
        </mxCell>
        <mxCell id="Dmu5rAs_sLpRuxzt0D4c-391" value="安全策略" style="rounded=0;whiteSpace=wrap;html=1;sketch=1;fontSize=20;align=center;verticalAlign=middle;fontFamily=Comic Sans MS;" vertex="1" parent="1">
          <mxGeometry x="240" y="-240" width="150" height="50" as="geometry" />
        </mxCell>
        <mxCell id="Dmu5rAs_sLpRuxzt0D4c-392" value="脚本执行" style="rounded=0;whiteSpace=wrap;html=1;sketch=1;fontSize=20;align=center;verticalAlign=middle;fontFamily=Comic Sans MS;" vertex="1" parent="1">
          <mxGeometry x="240" y="-300" width="150" height="50" as="geometry" />
        </mxCell>
        <mxCell id="Dmu5rAs_sLpRuxzt0D4c-393" value="&lt;div&gt;服务器自动化&lt;/div&gt;" style="rounded=0;whiteSpace=wrap;html=1;sketch=1;fontSize=20;align=center;verticalAlign=middle;fontFamily=Comic Sans MS;" vertex="1" parent="1">
          <mxGeometry x="240" y="-360" width="150" height="50" as="geometry" />
        </mxCell>
        <mxCell id="Dmu5rAs_sLpRuxzt0D4c-394" value="操作审计" style="rounded=0;whiteSpace=wrap;html=1;sketch=1;fontSize=20;align=center;verticalAlign=middle;fontFamily=Comic Sans MS;" vertex="1" parent="1">
          <mxGeometry x="400" y="-240" width="150" height="50" as="geometry" />
        </mxCell>
        <mxCell id="Dmu5rAs_sLpRuxzt0D4c-395" value="文件分发" style="rounded=0;whiteSpace=wrap;html=1;sketch=1;fontSize=20;align=center;verticalAlign=middle;fontFamily=Comic Sans MS;" vertex="1" parent="1">
          <mxGeometry x="400" y="-300" width="150" height="50" as="geometry" />
        </mxCell>
        <mxCell id="Dmu5rAs_sLpRuxzt0D4c-396" value="中间件自动化" style="rounded=0;whiteSpace=wrap;html=1;sketch=1;fontSize=20;align=center;verticalAlign=middle;fontFamily=Comic Sans MS;" vertex="1" parent="1">
          <mxGeometry x="400" y="-360" width="150" height="50" as="geometry" />
        </mxCell>
        <mxCell id="Dmu5rAs_sLpRuxzt0D4c-397" value="作业调度" style="rounded=0;whiteSpace=wrap;html=1;sketch=1;fontSize=20;align=center;verticalAlign=middle;fontFamily=Comic Sans MS;" vertex="1" parent="1">
          <mxGeometry x="560" y="-240" width="150" height="50" as="geometry" />
        </mxCell>
        <mxCell id="Dmu5rAs_sLpRuxzt0D4c-398" value="作业编排" style="rounded=0;whiteSpace=wrap;html=1;sketch=1;fontSize=20;align=center;verticalAlign=middle;fontFamily=Comic Sans MS;" vertex="1" parent="1">
          <mxGeometry x="560" y="-300" width="150" height="50" as="geometry" />
        </mxCell>
        <mxCell id="Dmu5rAs_sLpRuxzt0D4c-399" value="数据库自动化" style="rounded=0;whiteSpace=wrap;html=1;sketch=1;fontSize=20;align=center;verticalAlign=middle;fontFamily=Comic Sans MS;" vertex="1" parent="1">
          <mxGeometry x="560" y="-360" width="150" height="50" as="geometry" />
        </mxCell>
        <mxCell id="Dmu5rAs_sLpRuxzt0D4c-400" value="作业执行" style="rounded=0;whiteSpace=wrap;html=1;sketch=1;fontSize=20;align=center;verticalAlign=middle;fontFamily=Comic Sans MS;" vertex="1" parent="1">
          <mxGeometry x="720" y="-240" width="150" height="50" as="geometry" />
        </mxCell>
        <mxCell id="Dmu5rAs_sLpRuxzt0D4c-401" value="脚本管理" style="rounded=0;whiteSpace=wrap;html=1;sketch=1;fontSize=20;align=center;verticalAlign=middle;fontFamily=Comic Sans MS;" vertex="1" parent="1">
          <mxGeometry x="720" y="-300" width="150" height="50" as="geometry" />
        </mxCell>
        <mxCell id="Dmu5rAs_sLpRuxzt0D4c-402" value="网络设备自动化" style="rounded=0;whiteSpace=wrap;html=1;sketch=1;fontSize=20;align=center;verticalAlign=middle;fontFamily=Comic Sans MS;" vertex="1" parent="1">
          <mxGeometry x="720" y="-360" width="150" height="50" as="geometry" />
        </mxCell>
        <mxCell id="Dmu5rAs_sLpRuxzt0D4c-404" value="文件管理" style="rounded=0;whiteSpace=wrap;html=1;sketch=1;fontSize=20;align=center;verticalAlign=middle;fontFamily=Comic Sans MS;" vertex="1" parent="1">
          <mxGeometry x="880" y="-300" width="150" height="50" as="geometry" />
        </mxCell>
        <mxCell id="Dmu5rAs_sLpRuxzt0D4c-406" value="算法泛型、数据源" style="rounded=1;whiteSpace=wrap;html=1;sketch=1;fontSize=30;align=center;verticalAlign=middle;fontFamily=Comic Sans MS;" vertex="1" parent="1">
          <mxGeometry x="-30" y="-1320" width="249.5" height="50" as="geometry" />
        </mxCell>
        <mxCell id="Dmu5rAs_sLpRuxzt0D4c-408" value="" style="edgeStyle=orthogonalEdgeStyle;curved=0;rounded=1;sketch=1;orthogonalLoop=1;jettySize=auto;html=1;fontSize=20;fontColor=#FFFFFF;fontFamily=Comic Sans MS;" edge="1" parent="1" source="Dmu5rAs_sLpRuxzt0D4c-407" target="Dmu5rAs_sLpRuxzt0D4c-310">
          <mxGeometry relative="1" as="geometry" />
        </mxCell>
        <mxCell id="Dmu5rAs_sLpRuxzt0D4c-407" value="监控功能" style="rounded=1;whiteSpace=wrap;html=1;sketch=1;fontSize=30;align=center;verticalAlign=middle;fontFamily=Comic Sans MS;" vertex="1" parent="1">
          <mxGeometry x="-31" y="-960" width="249.5" height="110" as="geometry" />
        </mxCell>
        <mxCell id="Dmu5rAs_sLpRuxzt0D4c-409" value="逻辑处理引擎" style="rounded=1;whiteSpace=wrap;html=1;sketch=1;fontSize=30;align=center;verticalAlign=middle;fontFamily=Comic Sans MS;" vertex="1" parent="1">
          <mxGeometry x="-28" y="-480" width="249.5" height="110" as="geometry" />
        </mxCell>
        <mxCell id="Dmu5rAs_sLpRuxzt0D4c-410" value="&lt;span style=&quot;&quot;&gt;Automation执行&lt;/span&gt;" style="rounded=1;whiteSpace=wrap;html=1;sketch=1;fontSize=30;align=center;verticalAlign=middle;fontFamily=Comic Sans MS;" vertex="1" parent="1">
          <mxGeometry x="-30" y="-180" width="249.5" height="170" as="geometry" />
        </mxCell>
        <mxCell id="Dmu5rAs_sLpRuxzt0D4c-412" value="&lt;font style=&quot;font-size: 30px&quot;&gt;DOUC&amp;nbsp; 用户中心&lt;/font&gt;" style="verticalLabelPosition=bottom;verticalAlign=top;html=1;shape=mxgraph.basic.rect;fillColor2=none;strokeWidth=1;size=20;indent=5;rounded=0;sketch=1;fontSize=20;fontFamily=Comic Sans MS;" vertex="1" parent="1">
          <mxGeometry x="-266.5" width="1298" height="180" as="geometry" />
        </mxCell>
        <mxCell id="Dmu5rAs_sLpRuxzt0D4c-413" value="&lt;div&gt;组织机构管理&lt;/div&gt;" style="rounded=0;whiteSpace=wrap;html=1;sketch=1;fontSize=20;align=center;verticalAlign=middle;fontFamily=Comic Sans MS;" vertex="1" parent="1">
          <mxGeometry x="-240" y="20" width="150" height="50" as="geometry" />
        </mxCell>
        <mxCell id="Dmu5rAs_sLpRuxzt0D4c-414" value="&lt;div&gt;设置管理&lt;/div&gt;" style="rounded=0;whiteSpace=wrap;html=1;sketch=1;fontSize=20;align=center;verticalAlign=middle;fontFamily=Comic Sans MS;" vertex="1" parent="1">
          <mxGeometry x="-240" y="110" width="150" height="50" as="geometry" />
        </mxCell>
        <mxCell id="Dmu5rAs_sLpRuxzt0D4c-415" value="&lt;div&gt;用户管理&lt;/div&gt;" style="rounded=0;whiteSpace=wrap;html=1;sketch=1;fontSize=20;align=center;verticalAlign=middle;fontFamily=Comic Sans MS;" vertex="1" parent="1">
          <mxGeometry x="50" y="20" width="150" height="50" as="geometry" />
        </mxCell>
        <mxCell id="Dmu5rAs_sLpRuxzt0D4c-416" value="&lt;div&gt;个人设置管理&lt;/div&gt;" style="rounded=0;whiteSpace=wrap;html=1;sketch=1;fontSize=20;align=center;verticalAlign=middle;fontFamily=Comic Sans MS;" vertex="1" parent="1">
          <mxGeometry x="50" y="110" width="150" height="50" as="geometry" />
        </mxCell>
        <mxCell id="Dmu5rAs_sLpRuxzt0D4c-417" value="&lt;div&gt;角色管理&amp;nbsp;&lt;/div&gt;" style="rounded=0;whiteSpace=wrap;html=1;sketch=1;fontSize=20;align=center;verticalAlign=middle;fontFamily=Comic Sans MS;" vertex="1" parent="1">
          <mxGeometry x="307.5" y="20" width="150" height="50" as="geometry" />
        </mxCell>
        <mxCell id="Dmu5rAs_sLpRuxzt0D4c-418" value="&lt;div&gt;锁屏管理&lt;/div&gt;" style="rounded=0;whiteSpace=wrap;html=1;sketch=1;fontSize=20;align=center;verticalAlign=middle;fontFamily=Comic Sans MS;" vertex="1" parent="1">
          <mxGeometry x="307.5" y="110" width="150" height="50" as="geometry" />
        </mxCell>
        <mxCell id="Dmu5rAs_sLpRuxzt0D4c-419" value="&lt;div&gt;用户组管理&lt;/div&gt;" style="rounded=0;whiteSpace=wrap;html=1;sketch=1;fontSize=20;align=center;verticalAlign=middle;fontFamily=Comic Sans MS;" vertex="1" parent="1">
          <mxGeometry x="610" y="20" width="150" height="50" as="geometry" />
        </mxCell>
        <mxCell id="Dmu5rAs_sLpRuxzt0D4c-420" value="&lt;div&gt;平台后台管理&lt;/div&gt;" style="rounded=0;whiteSpace=wrap;html=1;sketch=1;fontSize=20;align=center;verticalAlign=middle;fontFamily=Comic Sans MS;" vertex="1" parent="1">
          <mxGeometry x="610" y="110" width="150" height="50" as="geometry" />
        </mxCell>
        <mxCell id="Dmu5rAs_sLpRuxzt0D4c-421" value="&lt;div&gt;日志审计&lt;/div&gt;" style="rounded=0;whiteSpace=wrap;html=1;sketch=1;fontSize=20;align=center;verticalAlign=middle;fontFamily=Comic Sans MS;" vertex="1" parent="1">
          <mxGeometry x="850" y="20" width="150" height="50" as="geometry" />
        </mxCell>
        <mxCell id="Dmu5rAs_sLpRuxzt0D4c-422" value="&lt;div&gt;后台管理/SSO白名单管理&lt;/div&gt;" style="rounded=0;whiteSpace=wrap;html=1;sketch=1;fontSize=20;align=center;verticalAlign=middle;fontFamily=Comic Sans MS;" vertex="1" parent="1">
          <mxGeometry x="850" y="110" width="150" height="50" as="geometry" />
        </mxCell>
        <mxCell id="Dmu5rAs_sLpRuxzt0D4c-423" value="&lt;h2 style=&quot;font-size: 30px&quot;&gt;&lt;font style=&quot;font-size: 30px&quot;&gt;数据汇聚治理中心&lt;/font&gt;&lt;/h2&gt;&lt;h2 style=&quot;font-size: 30px&quot;&gt;&lt;font style=&quot;font-size: 30px&quot;&gt;&lt;br&gt;&lt;/font&gt;&lt;/h2&gt;&lt;h2 style=&quot;font-size: 30px&quot;&gt;&lt;font style=&quot;font-size: 30px&quot;&gt;智能分析平台&lt;/font&gt;&lt;/h2&gt;&lt;div&gt;&lt;font style=&quot;font-size: 30px&quot;&gt;&lt;br&gt;&lt;/font&gt;&lt;/div&gt;&lt;div&gt;&lt;font style=&quot;font-size: 30px&quot;&gt;指标体系建设&lt;/font&gt;&lt;/div&gt;&lt;div&gt;&lt;font style=&quot;font-size: 30px&quot;&gt;&lt;br&gt;&lt;/font&gt;&lt;/div&gt;&lt;div&gt;&lt;font style=&quot;font-size: 30px&quot;&gt;智能告警平台&lt;/font&gt;&lt;/div&gt;&lt;div&gt;&lt;font style=&quot;font-size: 30px&quot;&gt;&lt;br&gt;&lt;/font&gt;&lt;/div&gt;&lt;div&gt;&lt;font style=&quot;font-size: 30px&quot;&gt;自动化运维平台&lt;/font&gt;&lt;/div&gt;" style="rounded=1;whiteSpace=wrap;html=1;sketch=1;fontFamily=Comic Sans MS;fontSize=30;" vertex="1" parent="1">
          <mxGeometry x="1070" y="-2100" width="60" height="2240" as="geometry" />
        </mxCell>
        <mxCell id="Dmu5rAs_sLpRuxzt0D4c-424" value="&lt;h2 style=&quot;font-size: 30px;&quot;&gt;&lt;font style=&quot;font-size: 30px;&quot;&gt;个性化数据应用&lt;/font&gt;&lt;/h2&gt;" style="rounded=1;whiteSpace=wrap;html=1;sketch=1;fontFamily=Comic Sans MS;fontSize=30;" vertex="1" parent="1">
          <mxGeometry x="-398.5" y="-2700" width="60" height="490" as="geometry" />
        </mxCell>
        <mxCell id="Dmu5rAs_sLpRuxzt0D4c-425" value="" style="rounded=1;whiteSpace=wrap;html=1;sketch=1;dashed=1;fontFamily=Comic Sans MS;" vertex="1" parent="1">
          <mxGeometry x="-329.5" y="-2690" width="1491" height="480" as="geometry" />
        </mxCell>
        <mxCell id="Dmu5rAs_sLpRuxzt0D4c-459" value="&lt;div style=&quot;font-size: 30px&quot;&gt;设备风险管理&lt;/div&gt;" style="shape=ext;double=1;rounded=1;whiteSpace=wrap;html=1;labelBackgroundColor=none;sketch=1;fontFamily=Comic Sans MS;fontSize=30;verticalAlign=top;" vertex="1" parent="1">
          <mxGeometry x="-270" y="-2440" width="230" height="210" as="geometry" />
        </mxCell>
        <mxCell id="Dmu5rAs_sLpRuxzt0D4c-460" value="对象数据：CMDB&lt;br&gt;预警数据：DOMA&lt;br&gt;指标数据：DODB&lt;br&gt;算法服务：DOIA" style="shape=document;whiteSpace=wrap;html=1;boundedLbl=1;rounded=0;sketch=1;fontSize=25;verticalAlign=top;align=left;fontFamily=Comic Sans MS;" vertex="1" parent="1">
          <mxGeometry x="-257.5" y="-2390" width="210" height="170" as="geometry" />
        </mxCell>
        <mxCell id="Dmu5rAs_sLpRuxzt0D4c-461" value="风险评估" style="rounded=1;whiteSpace=wrap;html=1;sketch=1;fontSize=30;align=center;verticalAlign=middle;fontFamily=Comic Sans MS;" vertex="1" parent="1">
          <mxGeometry x="-29.5" y="-2350" width="249.5" height="110" as="geometry" />
        </mxCell>
        <mxCell id="Dmu5rAs_sLpRuxzt0D4c-462" value="风险告警场景" style="rounded=1;whiteSpace=wrap;html=1;sketch=1;fontSize=30;align=center;verticalAlign=middle;fontFamily=Comic Sans MS;" vertex="1" parent="1">
          <mxGeometry x="-31" y="-2420" width="249.5" height="60" as="geometry" />
        </mxCell>
        <mxCell id="Dmu5rAs_sLpRuxzt0D4c-464" value="运行指标管理" style="rounded=0;whiteSpace=wrap;html=1;sketch=1;fontSize=20;align=center;verticalAlign=middle;fontFamily=Comic Sans MS;" vertex="1" parent="1">
          <mxGeometry x="240" y="-2290" width="150" height="50" as="geometry" />
        </mxCell>
        <mxCell id="Dmu5rAs_sLpRuxzt0D4c-465" value="资产识别" style="rounded=0;whiteSpace=wrap;html=1;sketch=1;fontSize=20;align=center;verticalAlign=middle;fontFamily=Comic Sans MS;" vertex="1" parent="1">
          <mxGeometry x="240" y="-2350" width="150" height="50" as="geometry" />
        </mxCell>
        <mxCell id="Dmu5rAs_sLpRuxzt0D4c-467" value="&lt;div&gt;风险阈值设置&lt;/div&gt;" style="rounded=0;whiteSpace=wrap;html=1;sketch=1;fontSize=20;align=center;verticalAlign=middle;fontFamily=Comic Sans MS;" vertex="1" parent="1">
          <mxGeometry x="400" y="-2290" width="150" height="50" as="geometry" />
        </mxCell>
        <mxCell id="Dmu5rAs_sLpRuxzt0D4c-468" value="脆弱性识别" style="rounded=0;whiteSpace=wrap;html=1;sketch=1;fontSize=20;align=center;verticalAlign=middle;fontFamily=Comic Sans MS;" vertex="1" parent="1">
          <mxGeometry x="400" y="-2350" width="150" height="50" as="geometry" />
        </mxCell>
        <mxCell id="Dmu5rAs_sLpRuxzt0D4c-469" value="告警信息对接" style="rounded=0;whiteSpace=wrap;html=1;sketch=1;fontSize=20;align=center;verticalAlign=middle;fontFamily=Comic Sans MS;" vertex="1" parent="1">
          <mxGeometry x="560" y="-2290" width="150" height="50" as="geometry" />
        </mxCell>
        <mxCell id="Dmu5rAs_sLpRuxzt0D4c-470" value="威胁识别" style="rounded=0;whiteSpace=wrap;html=1;sketch=1;fontSize=20;align=center;verticalAlign=middle;fontFamily=Comic Sans MS;" vertex="1" parent="1">
          <mxGeometry x="560" y="-2350" width="150" height="50" as="geometry" />
        </mxCell>
        <mxCell id="Dmu5rAs_sLpRuxzt0D4c-472" value="&lt;p class=&quot;MsoNormal&quot;&gt;&lt;span style=&quot;font-size: 12.0000pt&quot;&gt;&lt;font&gt;静态与动态信息&lt;/font&gt;&lt;/span&gt;&lt;/p&gt;" style="rounded=0;whiteSpace=wrap;html=1;sketch=1;fontSize=20;align=center;verticalAlign=middle;fontFamily=Comic Sans MS;" vertex="1" parent="1">
          <mxGeometry x="720" y="-2350" width="150" height="50" as="geometry" />
        </mxCell>
        <mxCell id="Dmu5rAs_sLpRuxzt0D4c-474" value="&lt;font&gt;&lt;span style=&quot;font-size: 16px&quot;&gt;设备基础信息展示&lt;/span&gt;&lt;/font&gt;" style="rounded=0;whiteSpace=wrap;html=1;sketch=1;fontSize=20;align=center;verticalAlign=middle;fontFamily=Comic Sans MS;" vertex="1" parent="1">
          <mxGeometry x="880" y="-2350" width="150" height="50" as="geometry" />
        </mxCell>
        <mxCell id="Dmu5rAs_sLpRuxzt0D4c-477" value="&lt;div&gt;设备更换风险&lt;/div&gt;" style="rounded=0;whiteSpace=wrap;html=1;sketch=1;fontSize=20;align=center;verticalAlign=middle;fontFamily=Comic Sans MS;" vertex="1" parent="1">
          <mxGeometry x="234.5" y="-2415" width="150" height="50" as="geometry" />
        </mxCell>
        <mxCell id="Dmu5rAs_sLpRuxzt0D4c-479" value="设备故障风险" style="rounded=0;whiteSpace=wrap;html=1;sketch=1;fontSize=20;align=center;verticalAlign=middle;fontFamily=Comic Sans MS;" vertex="1" parent="1">
          <mxGeometry x="394.5" y="-2415" width="150" height="50" as="geometry" />
        </mxCell>
        <mxCell id="Dmu5rAs_sLpRuxzt0D4c-480" value="资源调配风险" style="rounded=0;whiteSpace=wrap;html=1;sketch=1;fontSize=20;align=center;verticalAlign=middle;fontFamily=Comic Sans MS;" vertex="1" parent="1">
          <mxGeometry x="554.5" y="-2415" width="150" height="50" as="geometry" />
        </mxCell>
        <mxCell id="Dmu5rAs_sLpRuxzt0D4c-481" value="设备静态指标风险" style="rounded=0;whiteSpace=wrap;html=1;sketch=1;fontSize=20;align=center;verticalAlign=middle;fontFamily=Comic Sans MS;" vertex="1" parent="1">
          <mxGeometry x="714.5" y="-2415" width="150" height="50" as="geometry" />
        </mxCell>
        <mxCell id="Dmu5rAs_sLpRuxzt0D4c-482" value="风险告警" style="rounded=0;whiteSpace=wrap;html=1;sketch=1;fontSize=20;align=center;verticalAlign=middle;fontFamily=Comic Sans MS;" vertex="1" parent="1">
          <mxGeometry x="874.5" y="-2415" width="150" height="50" as="geometry" />
        </mxCell>
        <mxCell id="Dmu5rAs_sLpRuxzt0D4c-483" value="风险类别管理" style="rounded=0;whiteSpace=wrap;html=1;sketch=1;fontSize=20;align=center;verticalAlign=middle;fontFamily=Comic Sans MS;" vertex="1" parent="1">
          <mxGeometry x="720" y="-2290" width="150" height="50" as="geometry" />
        </mxCell>
        <mxCell id="Dmu5rAs_sLpRuxzt0D4c-484" value="&lt;div&gt;&lt;p class=&quot;MsoNormal&quot; style=&quot;margin: 0pt 0pt 0.0001pt ; text-align: justify&quot;&gt;&lt;span&gt;&lt;font style=&quot;font-size: 20px&quot;&gt;云平台资源容量智能评估&lt;/font&gt;&lt;/span&gt;&lt;/p&gt;&lt;/div&gt;" style="shape=ext;double=1;rounded=1;whiteSpace=wrap;html=1;labelBackgroundColor=none;sketch=1;fontFamily=Comic Sans MS;fontSize=30;verticalAlign=top;" vertex="1" parent="1">
          <mxGeometry x="-268.5" y="-2670" width="230" height="210" as="geometry" />
        </mxCell>
        <mxCell id="Dmu5rAs_sLpRuxzt0D4c-485" value="对象数据：CMDB&lt;br&gt;资源数据：Excel&lt;br&gt;指标数据：DODB&lt;br&gt;算法服务：DOIA&lt;br&gt;" style="shape=document;whiteSpace=wrap;html=1;boundedLbl=1;rounded=0;sketch=1;fontSize=25;verticalAlign=top;align=left;fontFamily=Comic Sans MS;" vertex="1" parent="1">
          <mxGeometry x="-256" y="-2620" width="210" height="170" as="geometry" />
        </mxCell>
        <mxCell id="Dmu5rAs_sLpRuxzt0D4c-486" value="资源评估" style="rounded=1;whiteSpace=wrap;html=1;sketch=1;fontSize=30;align=center;verticalAlign=middle;fontFamily=Comic Sans MS;" vertex="1" parent="1">
          <mxGeometry x="-28" y="-2580" width="249.5" height="110" as="geometry" />
        </mxCell>
        <mxCell id="Dmu5rAs_sLpRuxzt0D4c-487" value="云资源评估场景" style="rounded=1;whiteSpace=wrap;html=1;sketch=1;fontSize=30;align=center;verticalAlign=middle;fontFamily=Comic Sans MS;" vertex="1" parent="1">
          <mxGeometry x="-29.5" y="-2650" width="249.5" height="60" as="geometry" />
        </mxCell>
        <mxCell id="Dmu5rAs_sLpRuxzt0D4c-488" value="资源使用分析" style="rounded=0;whiteSpace=wrap;html=1;sketch=1;fontSize=20;align=center;verticalAlign=middle;fontFamily=Comic Sans MS;" vertex="1" parent="1">
          <mxGeometry x="241.5" y="-2520" width="150" height="50" as="geometry" />
        </mxCell>
        <mxCell id="Dmu5rAs_sLpRuxzt0D4c-489" value="资源管理" style="rounded=0;whiteSpace=wrap;html=1;sketch=1;fontSize=20;align=center;verticalAlign=middle;fontFamily=Comic Sans MS;" vertex="1" parent="1">
          <mxGeometry x="241.5" y="-2580" width="150" height="50" as="geometry" />
        </mxCell>
        <mxCell id="Dmu5rAs_sLpRuxzt0D4c-490" value="&lt;div&gt;资源预测&lt;/div&gt;" style="rounded=0;whiteSpace=wrap;html=1;sketch=1;fontSize=20;align=center;verticalAlign=middle;fontFamily=Comic Sans MS;" vertex="1" parent="1">
          <mxGeometry x="401.5" y="-2520" width="150" height="50" as="geometry" />
        </mxCell>
        <mxCell id="Dmu5rAs_sLpRuxzt0D4c-491" value="资源消耗查看" style="rounded=0;whiteSpace=wrap;html=1;sketch=1;fontSize=20;align=center;verticalAlign=middle;fontFamily=Comic Sans MS;" vertex="1" parent="1">
          <mxGeometry x="401.5" y="-2580" width="150" height="50" as="geometry" />
        </mxCell>
        <mxCell id="Dmu5rAs_sLpRuxzt0D4c-493" value="资源预占位" style="rounded=0;whiteSpace=wrap;html=1;sketch=1;fontSize=20;align=center;verticalAlign=middle;fontFamily=Comic Sans MS;" vertex="1" parent="1">
          <mxGeometry x="561.5" y="-2580" width="150" height="50" as="geometry" />
        </mxCell>
        <mxCell id="Dmu5rAs_sLpRuxzt0D4c-494" value="&lt;p class=&quot;MsoNormal&quot; style=&quot;font-size: 21px;&quot;&gt;&lt;span style=&quot;font-size: 21px;&quot;&gt;&lt;font style=&quot;font-size: 21px;&quot;&gt;资源分配计算&lt;/font&gt;&lt;/span&gt;&lt;/p&gt;" style="rounded=0;whiteSpace=wrap;html=1;sketch=1;fontSize=21;align=center;verticalAlign=middle;fontFamily=Comic Sans MS;fontStyle=0" vertex="1" parent="1">
          <mxGeometry x="721.5" y="-2580" width="150" height="50" as="geometry" />
        </mxCell>
        <mxCell id="Dmu5rAs_sLpRuxzt0D4c-495" value="&lt;font style=&quot;font-size: 20px&quot;&gt;资源预占设置&lt;/font&gt;" style="rounded=0;whiteSpace=wrap;html=1;sketch=1;fontSize=20;align=center;verticalAlign=middle;fontFamily=Comic Sans MS;" vertex="1" parent="1">
          <mxGeometry x="881.5" y="-2580" width="150" height="50" as="geometry" />
        </mxCell>
        <mxCell id="Dmu5rAs_sLpRuxzt0D4c-496" value="存储资源评估" style="rounded=0;whiteSpace=wrap;html=1;sketch=1;fontSize=20;align=center;verticalAlign=middle;fontFamily=Comic Sans MS;" vertex="1" parent="1">
          <mxGeometry x="236" y="-2645" width="150" height="50" as="geometry" />
        </mxCell>
        <mxCell id="Dmu5rAs_sLpRuxzt0D4c-497" value="网络资源评估" style="rounded=0;whiteSpace=wrap;html=1;sketch=1;fontSize=20;align=center;verticalAlign=middle;fontFamily=Comic Sans MS;" vertex="1" parent="1">
          <mxGeometry x="396" y="-2645" width="150" height="50" as="geometry" />
        </mxCell>
        <mxCell id="Dmu5rAs_sLpRuxzt0D4c-498" value="CPU/GPU资源评估" style="rounded=0;whiteSpace=wrap;html=1;sketch=1;fontSize=20;align=center;verticalAlign=middle;fontFamily=Comic Sans MS;" vertex="1" parent="1">
          <mxGeometry x="556" y="-2645" width="150" height="50" as="geometry" />
        </mxCell>
        <mxCell id="Dmu5rAs_sLpRuxzt0D4c-502" value="&lt;h2 style=&quot;font-size: 30px;&quot;&gt;&lt;font style=&quot;font-size: 30px;&quot;&gt;资源评估&lt;/font&gt;&lt;/h2&gt;&lt;div style=&quot;font-size: 30px;&quot;&gt;风险告警&lt;/div&gt;" style="rounded=1;whiteSpace=wrap;html=1;sketch=1;fontFamily=Comic Sans MS;fontSize=30;fontStyle=0" vertex="1" parent="1">
          <mxGeometry x="1070" y="-2680" width="60" height="460" as="geometry" />
        </mxCell>
        <mxCell id="Dmu5rAs_sLpRuxzt0D4c-503" value="&lt;span style=&quot;font-size: 30px;&quot;&gt;SYSLog&lt;/span&gt;" style="ellipse;whiteSpace=wrap;html=1;rounded=0;fontFamily=Comic Sans MS;fontSize=30;sketch=1;" vertex="1" parent="1">
          <mxGeometry x="-180" y="1225" width="120" height="60" as="geometry" />
        </mxCell>
        <mxCell id="Dmu5rAs_sLpRuxzt0D4c-505" value="&lt;font style=&quot;font-size: 30px&quot;&gt;APPLog&lt;/font&gt;" style="ellipse;whiteSpace=wrap;html=1;rounded=0;fontFamily=Comic Sans MS;fontSize=38;sketch=1;" vertex="1" parent="1">
          <mxGeometry x="100" y="1225" width="120" height="60" as="geometry" />
        </mxCell>
        <mxCell id="Dmu5rAs_sLpRuxzt0D4c-507" value="&lt;font style=&quot;font-size: 30px&quot;&gt;Data&lt;/font&gt;" style="ellipse;whiteSpace=wrap;html=1;rounded=0;fontFamily=Comic Sans MS;fontSize=38;sketch=1;" vertex="1" parent="1">
          <mxGeometry x="409.5" y="1225" width="120" height="60" as="geometry" />
        </mxCell>
        <mxCell id="Dmu5rAs_sLpRuxzt0D4c-508" value="&lt;font style=&quot;font-size: 30px&quot;&gt;TData&lt;/font&gt;" style="ellipse;whiteSpace=wrap;html=1;rounded=0;fontFamily=Comic Sans MS;fontSize=38;sketch=1;" vertex="1" parent="1">
          <mxGeometry x="710" y="1225" width="120" height="60" as="geometry" />
        </mxCell>
        <mxCell id="Dmu5rAs_sLpRuxzt0D4c-509" value="&lt;font style=&quot;font-size: 24px&quot;&gt;指标数据&lt;/font&gt;" style="ellipse;whiteSpace=wrap;html=1;rounded=0;fontFamily=Comic Sans MS;fontSize=38;sketch=1;" vertex="1" parent="1">
          <mxGeometry x="1000" y="1225" width="120" height="60" as="geometry" />
        </mxCell>
        <mxCell id="Dmu5rAs_sLpRuxzt0D4c-510" value="&lt;font style=&quot;font-size: 30px&quot;&gt;查询&lt;/font&gt;" style="ellipse;whiteSpace=wrap;html=1;rounded=0;fontFamily=Comic Sans MS;fontSize=38;sketch=1;" vertex="1" parent="1">
          <mxGeometry x="-190" y="280" width="120" height="60" as="geometry" />
        </mxCell>
        <mxCell id="Dmu5rAs_sLpRuxzt0D4c-512" value="&lt;font style=&quot;font-size: 30px&quot;&gt;推送&lt;/font&gt;" style="ellipse;whiteSpace=wrap;html=1;rounded=0;fontFamily=Comic Sans MS;fontSize=30;sketch=1;" vertex="1" parent="1">
          <mxGeometry x="90" y="280" width="120" height="60" as="geometry" />
        </mxCell>
        <mxCell id="Dmu5rAs_sLpRuxzt0D4c-513" value="&lt;font style=&quot;font-size: 30px&quot;&gt;分析存储/备份&lt;/font&gt;" style="ellipse;whiteSpace=wrap;html=1;rounded=0;fontFamily=Comic Sans MS;fontSize=30;sketch=1;" vertex="1" parent="1">
          <mxGeometry x="443" y="260" width="477" height="60" as="geometry" />
        </mxCell>
        <mxCell id="Dmu5rAs_sLpRuxzt0D4c-514" value="算法说明&lt;br&gt;指标异常检测：使用动态基线算法针对具有一定周期性并相对稳定的指标，或者具有较强趋势性的指标进行异常状态检测。&lt;br&gt;&lt;br&gt;根因分析：基于 CMDB 维护的模型对象接入与定义指标，将指标挂靠到模型/对象上，通过依赖CMDB的业务层级关系来构建监控对象的层级拓扑；监控的指标挂靠在每个层级中的监控对象中，从而当异常规则触发时，可快速定位到根因。&lt;br&gt;&lt;span&gt;ForFaDE是基于线性时序逻辑的根因定位引擎，它利用模型检测和图搜索技术搜索系统给定现象的起源事件。&lt;/span&gt;&lt;div&gt;MeREx是相关性制导的故障定位引擎，它利用相关性计算节点上指标的根因评分，并进行指标下钻直至找到故障指标。&lt;/div&gt;&lt;div&gt;NoRan是相关性制导的故障定位引擎，它利用相关性证据和随机游走过程来给出节点的根因评分。&lt;/div&gt;&lt;br&gt;容量预测：使用 Tima 算法兼并动态基线、自动阈值算法的算法检测效果，对周期性及平稳型的指标进行容量预测。&lt;br&gt;&lt;br&gt;告警抑制：通过告警识别算法识别数据的特点进而使用算法压缩合并告警事件，减少告警风暴。&lt;br&gt;&lt;br&gt;服务器故障预测：基于多维度指标序列分组计算的衍生指标能力，建立全面检测服务器潜在故障因素的诊断模型，触发模型阈值时则发出故障预测。&lt;br&gt;&lt;br&gt;业务时间预测：使用 DWtima 算法兼并动态基线、自动阈值算法的算法检测效果，预测含同环数据特征的业务数据批处理耗时。&lt;br&gt;&lt;br&gt;故障影响范围智能诊断：通过调用链管理功能，实现业务场景链路的管理，当时某个监控对象的指标异常时，可快速智能诊断出影响范围。&lt;br&gt;&lt;br&gt;解决故障预测能力不足、故障定位时间长：衍生指标支持添加计算区间时的增量算法处理能力，提升算法处理效率、提升故障预测能力、加快故障定位耗时" style="whiteSpace=wrap;html=1;rounded=1;fontFamily=Comic Sans MS;fontSize=30;verticalAlign=top;sketch=1;align=left;" vertex="1" parent="1">
          <mxGeometry x="-1420" y="-1915" width="935" height="1300" as="geometry" />
        </mxCell>
        <mxCell id="Dmu5rAs_sLpRuxzt0D4c-516" value="&lt;h2 style=&quot;font-size: 30px&quot;&gt;&lt;font style=&quot;font-size: 30px&quot;&gt;统一门户&lt;/font&gt;&lt;/h2&gt;" style="rounded=1;whiteSpace=wrap;html=1;sketch=1;fontFamily=Comic Sans MS;fontSize=30;" vertex="1" parent="1">
          <mxGeometry x="-395.5" y="-3180" width="60" height="480" as="geometry" />
        </mxCell>
        <mxCell id="Dmu5rAs_sLpRuxzt0D4c-517" value="" style="rounded=1;whiteSpace=wrap;html=1;sketch=1;dashed=1;fontFamily=Comic Sans MS;" vertex="1" parent="1">
          <mxGeometry x="-326.5" y="-3180" width="1491" height="480" as="geometry" />
        </mxCell>
        <mxCell id="Dmu5rAs_sLpRuxzt0D4c-518" value="&lt;div style=&quot;font-size: 30px&quot;&gt;统一门户管理&lt;/div&gt;" style="shape=ext;double=1;rounded=1;whiteSpace=wrap;html=1;labelBackgroundColor=none;sketch=1;fontFamily=Comic Sans MS;fontSize=30;verticalAlign=top;" vertex="1" parent="1">
          <mxGeometry x="-267" y="-3170" width="230" height="450" as="geometry" />
        </mxCell>
        <mxCell id="Dmu5rAs_sLpRuxzt0D4c-519" value="&lt;div&gt;采控中心 DOCC&lt;/div&gt;&lt;div&gt;数据中心 DODB&lt;/div&gt;&lt;div&gt;配置中心 CMDB&lt;/div&gt;&lt;div&gt;指标中心 DOMM&lt;/div&gt;&lt;div&gt;日志中心 DOLA&lt;/div&gt;&lt;div&gt;算法中心 DOIA&lt;/div&gt;&lt;div&gt;监控中心 DOMA&lt;/div&gt;&lt;div&gt;事件中心 DOEM&lt;/div&gt;&lt;div&gt;自动化作业Automation&lt;/div&gt;&lt;div&gt;用户中心 DOUC&lt;/div&gt;&lt;div&gt;设备风险管理&lt;/div&gt;&lt;div&gt;云平台资源评估&lt;/div&gt;" style="shape=document;whiteSpace=wrap;html=1;boundedLbl=1;rounded=0;sketch=1;fontSize=25;verticalAlign=top;align=left;fontFamily=Comic Sans MS;" vertex="1" parent="1">
          <mxGeometry x="-254.5" y="-3120" width="210" height="410" as="geometry" />
        </mxCell>
        <mxCell id="Dmu5rAs_sLpRuxzt0D4c-552" value="&lt;div style=&quot;font-size: 30px&quot;&gt;设备风险管理&lt;/div&gt;" style="shape=ext;double=1;rounded=1;whiteSpace=wrap;html=1;labelBackgroundColor=none;sketch=1;fontFamily=Comic Sans MS;fontSize=30;verticalAlign=top;" vertex="1" parent="1">
          <mxGeometry x="908.5" y="-2935" width="230" height="210" as="geometry" />
        </mxCell>
        <mxCell id="Dmu5rAs_sLpRuxzt0D4c-553" value="对象数据：CMDB&lt;br&gt;预警数据：DOMA&lt;br&gt;指标数据：DODB&lt;br&gt;算法服务：DOIA" style="shape=document;whiteSpace=wrap;html=1;boundedLbl=1;rounded=0;sketch=1;fontSize=25;verticalAlign=top;align=left;fontFamily=Comic Sans MS;" vertex="1" parent="1">
          <mxGeometry x="921" y="-2885" width="210" height="170" as="geometry" />
        </mxCell>
        <mxCell id="Dmu5rAs_sLpRuxzt0D4c-554" value="&lt;div&gt;&lt;p class=&quot;MsoNormal&quot; style=&quot;margin: 0pt 0pt 0.0001pt ; text-align: justify&quot;&gt;&lt;span&gt;&lt;font style=&quot;font-size: 20px&quot;&gt;云平台资源容量智能评估&lt;/font&gt;&lt;/span&gt;&lt;/p&gt;&lt;/div&gt;" style="shape=ext;double=1;rounded=1;whiteSpace=wrap;html=1;labelBackgroundColor=none;sketch=1;fontFamily=Comic Sans MS;fontSize=30;verticalAlign=top;" vertex="1" parent="1">
          <mxGeometry x="910" y="-3165" width="230" height="210" as="geometry" />
        </mxCell>
        <mxCell id="Dmu5rAs_sLpRuxzt0D4c-555" value="对象数据：CMDB&lt;br&gt;资源数据：Excel&lt;br&gt;指标数据：DODB&lt;br&gt;算法服务：DOIA&lt;br&gt;" style="shape=document;whiteSpace=wrap;html=1;boundedLbl=1;rounded=0;sketch=1;fontSize=25;verticalAlign=top;align=left;fontFamily=Comic Sans MS;" vertex="1" parent="1">
          <mxGeometry x="922.5" y="-3115" width="210" height="170" as="geometry" />
        </mxCell>
        <mxCell id="Dmu5rAs_sLpRuxzt0D4c-556" value="&lt;div style=&quot;font-size: 30px;&quot;&gt;&lt;span style=&quot;font-size: 30px;&quot;&gt;监控中心 DOMA&lt;/span&gt;&lt;br style=&quot;font-size: 30px;&quot;&gt;&lt;/div&gt;" style="shape=ext;double=1;rounded=1;whiteSpace=wrap;html=1;labelBackgroundColor=none;sketch=1;fontFamily=Comic Sans MS;fontSize=30;verticalAlign=top;" vertex="1" parent="1">
          <mxGeometry x="440" y="-2940" width="230" height="225" as="geometry" />
        </mxCell>
        <mxCell id="Dmu5rAs_sLpRuxzt0D4c-557" value="&lt;div style=&quot;font-size: 30px;&quot;&gt;&lt;span style=&quot;font-size: 30px;&quot;&gt;事件中心 DOEM&lt;/span&gt;&lt;br style=&quot;font-size: 30px;&quot;&gt;&lt;/div&gt;" style="shape=ext;double=1;rounded=1;whiteSpace=wrap;html=1;labelBackgroundColor=none;sketch=1;fontFamily=Comic Sans MS;fontSize=30;verticalAlign=top;" vertex="1" parent="1">
          <mxGeometry x="670" y="-3170" width="230" height="220" as="geometry" />
        </mxCell>
        <mxCell id="Dmu5rAs_sLpRuxzt0D4c-558" value="&lt;div style=&quot;font-size: 30px;&quot;&gt;&lt;span style=&quot;font-size: 30px;&quot;&gt;自动化作业Automation&lt;/span&gt;&lt;br style=&quot;font-size: 30px;&quot;&gt;&lt;/div&gt;" style="shape=ext;double=1;rounded=1;whiteSpace=wrap;html=1;labelBackgroundColor=none;sketch=1;fontFamily=Comic Sans MS;fontSize=30;verticalAlign=top;" vertex="1" parent="1">
          <mxGeometry x="670" y="-2940" width="230" height="225" as="geometry" />
        </mxCell>
        <mxCell id="Dmu5rAs_sLpRuxzt0D4c-559" value="&lt;div style=&quot;font-size: 30px;&quot;&gt;&lt;span style=&quot;font-size: 30px;&quot;&gt;日志中心 DOLA&lt;/span&gt;&lt;br style=&quot;font-size: 30px;&quot;&gt;&lt;/div&gt;" style="shape=ext;double=1;rounded=1;whiteSpace=wrap;html=1;labelBackgroundColor=none;sketch=1;fontFamily=Comic Sans MS;fontSize=30;verticalAlign=top;" vertex="1" parent="1">
          <mxGeometry x="201.5" y="-3170" width="230" height="450" as="geometry" />
        </mxCell>
        <mxCell id="Dmu5rAs_sLpRuxzt0D4c-560" value="&lt;div style=&quot;font-size: 30px;&quot;&gt;&lt;span style=&quot;font-size: 30px;&quot;&gt;算法中心 DOIA&lt;/span&gt;&lt;br style=&quot;font-size: 30px;&quot;&gt;&lt;/div&gt;" style="shape=ext;double=1;rounded=1;whiteSpace=wrap;html=1;labelBackgroundColor=none;sketch=1;fontFamily=Comic Sans MS;fontSize=30;verticalAlign=top;" vertex="1" parent="1">
          <mxGeometry x="440" y="-3170" width="230" height="220" as="geometry" />
        </mxCell>
        <mxCell id="Dmu5rAs_sLpRuxzt0D4c-561" value="&lt;div style=&quot;font-size: 30px;&quot;&gt;指标中心 DOMM&lt;/div&gt;" style="shape=ext;double=1;rounded=1;whiteSpace=wrap;html=1;labelBackgroundColor=none;sketch=1;fontFamily=Comic Sans MS;fontSize=30;verticalAlign=top;" vertex="1" parent="1">
          <mxGeometry x="-28" y="-3170" width="230" height="455" as="geometry" />
        </mxCell>
        <mxCell id="Dmu5rAs_sLpRuxzt0D4c-562" value="对象数据：CMDB&lt;br&gt;指标数据：DODB&lt;br&gt;算法服务：DOIA&lt;br&gt;说明：指标数据管理、分类、分组以及指标识别计算；&lt;br&gt;" style="shape=document;whiteSpace=wrap;html=1;boundedLbl=1;rounded=0;sketch=1;fontSize=25;verticalAlign=top;align=left;fontFamily=Comic Sans MS;" vertex="1" parent="1">
          <mxGeometry x="-18" y="-3070" width="210" height="335" as="geometry" />
        </mxCell>
        <mxCell id="Dmu5rAs_sLpRuxzt0D4c-563" value="日志采集：CDC、Logstash、Filebeat&lt;br&gt;日志数据：DODB&lt;br&gt;说明：于大数据技术与智能算法来实现离散日志数据的统一采集、处理、存储与查询分析。" style="shape=document;whiteSpace=wrap;html=1;boundedLbl=1;rounded=0;sketch=1;fontSize=25;verticalAlign=top;align=left;fontFamily=Comic Sans MS;" vertex="1" parent="1">
          <mxGeometry x="211.5" y="-3070" width="210" height="310" as="geometry" />
        </mxCell>
        <mxCell id="Dmu5rAs_sLpRuxzt0D4c-564" value="支撑：DOEM、DOLA、DOMM、第三方&lt;br&gt;&lt;span&gt;自监控&lt;/span&gt;：算法任务&lt;br&gt;算法服务：DOIA" style="shape=document;whiteSpace=wrap;html=1;boundedLbl=1;rounded=0;sketch=1;fontSize=25;verticalAlign=top;align=left;fontFamily=Comic Sans MS;" vertex="1" parent="1">
          <mxGeometry x="450" y="-3115" width="210" height="165" as="geometry" />
        </mxCell>
        <mxCell id="Dmu5rAs_sLpRuxzt0D4c-565" value="对象数据：CMDB&lt;br&gt;指标数据：DODB&lt;br&gt;算法服务：DOIA&lt;br&gt;时间服务：DOEM" style="shape=document;whiteSpace=wrap;html=1;boundedLbl=1;rounded=0;sketch=1;fontSize=25;verticalAlign=top;align=left;fontFamily=Comic Sans MS;" vertex="1" parent="1">
          <mxGeometry x="450" y="-2890" width="210" height="155" as="geometry" />
        </mxCell>
        <mxCell id="Dmu5rAs_sLpRuxzt0D4c-566" value="对象数据：CMDB&lt;br&gt;指标数据：DODB&lt;br&gt;算法服务：DOIA" style="shape=document;whiteSpace=wrap;html=1;boundedLbl=1;rounded=0;sketch=1;fontSize=25;verticalAlign=top;align=left;fontFamily=Comic Sans MS;" vertex="1" parent="1">
          <mxGeometry x="680" y="-3110" width="210" height="160" as="geometry" />
        </mxCell>
        <mxCell id="Dmu5rAs_sLpRuxzt0D4c-567" value="对象数据：CMDB&lt;br&gt;指标数据：DODB&lt;br&gt;算法服务：DOIA" style="shape=document;whiteSpace=wrap;html=1;boundedLbl=1;rounded=0;sketch=1;fontSize=25;verticalAlign=top;align=left;fontFamily=Comic Sans MS;" vertex="1" parent="1">
          <mxGeometry x="680" y="-2890" width="210" height="165" as="geometry" />
        </mxCell>
      </root>
    </mxGraphModel>
  </diagram>
</mxfile>
